<svg width="138" height="40" viewBox="0 0 138 40" fill="none" xmlns="http://www.w3.org/2000/svg">
<rect x="0.425" y="0.425" width="137.15" height="39.15" rx="7.575" fill="black"/>
<path d="M10.0831 25.6293C9.75497 25.6293 9.47325 25.5133 9.23793 25.2812C9.00592 25.0459 8.88991 24.7642 8.88991 24.4361C8.88991 24.1113 9.00592 23.8329 9.23793 23.6009C9.47325 23.3688 9.75497 23.2528 10.0831 23.2528C10.4013 23.2528 10.6797 23.3688 10.9183 23.6009C11.157 23.8329 11.2763 24.1113 11.2763 24.4361C11.2763 24.6548 11.2199 24.8554 11.1072 25.0376C10.9979 25.2166 10.8537 25.3608 10.6747 25.4702C10.4957 25.5762 10.2985 25.6293 10.0831 25.6293ZM14.6326 25.6442C14.1454 25.6442 13.7112 25.5597 13.3301 25.3906C12.9489 25.2183 12.6473 24.9647 12.4253 24.63C12.2065 24.2919 12.0971 23.871 12.0971 23.3672C12.0971 22.9429 12.175 22.5866 12.3308 22.2983C12.4866 22.0099 12.6987 21.7779 12.9672 21.6023C13.2356 21.4266 13.5406 21.294 13.8819 21.2045C14.2266 21.1151 14.5879 21.0521 14.9657 21.0156C15.4099 20.9692 15.7678 20.9261 16.0396 20.8864C16.3114 20.8433 16.5086 20.7803 16.6312 20.6974C16.7539 20.6146 16.8152 20.492 16.8152 20.3295V20.2997C16.8152 19.9848 16.7157 19.7412 16.5169 19.5689C16.3213 19.3965 16.0429 19.3104 15.6817 19.3104C15.3005 19.3104 14.9972 19.3949 14.7719 19.5639C14.5465 19.7296 14.3973 19.9384 14.3244 20.1903L12.3656 20.0312C12.465 19.5672 12.6606 19.1662 12.9523 18.8281C13.2439 18.4867 13.6201 18.2249 14.0808 18.0426C14.5448 17.857 15.0817 17.7642 15.6916 17.7642C16.1158 17.7642 16.5219 17.8139 16.9096 17.9134C17.3007 18.0128 17.6471 18.1669 17.9487 18.3757C18.2536 18.5845 18.4939 18.853 18.6696 19.1811C18.8452 19.5059 18.9331 19.8954 18.9331 20.3494V25.5H16.9246V24.4411H16.8649C16.7423 24.6797 16.5782 24.8902 16.3727 25.0724C16.1672 25.2514 15.9203 25.3923 15.6319 25.495C15.3436 25.5945 15.0105 25.6442 14.6326 25.6442ZM15.2392 24.1825C15.5507 24.1825 15.8258 24.1212 16.0645 23.9986C16.3031 23.8726 16.4904 23.7036 16.6263 23.4915C16.7621 23.2794 16.8301 23.0391 16.8301 22.7706V21.9602C16.7638 22.0033 16.6727 22.0431 16.5567 22.0795C16.444 22.1127 16.3164 22.1442 16.1738 22.174C16.0313 22.2005 15.8888 22.2254 15.7463 22.2486C15.6038 22.2685 15.4745 22.2867 15.3585 22.3033C15.1099 22.3397 14.8928 22.3977 14.7072 22.4773C14.5216 22.5568 14.3774 22.6645 14.2747 22.8004C14.1719 22.933 14.1206 23.0987 14.1206 23.2976C14.1206 23.5859 14.225 23.8063 14.4338 23.9588C14.6459 24.108 14.9144 24.1825 15.2392 24.1825ZM20.0162 28.3636V17.8636H22.1043V19.1463H22.1987C22.2915 18.9408 22.4258 18.732 22.6014 18.5199C22.7804 18.3045 23.0124 18.1255 23.2974 17.983C23.5858 17.8371 23.9437 17.7642 24.3713 17.7642C24.9281 17.7642 25.4418 17.91 25.9125 18.2017C26.3831 18.4901 26.7593 18.9259 27.041 19.5092C27.3228 20.0893 27.4636 20.8168 27.4636 21.6918C27.4636 22.5436 27.3261 23.2628 27.051 23.8494C26.7792 24.4328 26.408 24.8752 25.9374 25.1768C25.47 25.4751 24.9463 25.6243 24.3663 25.6243C23.9553 25.6243 23.6057 25.5563 23.3173 25.4205C23.0323 25.2846 22.7986 25.1139 22.6163 24.9084C22.434 24.6996 22.2948 24.4891 22.1987 24.277H22.1341V28.3636H20.0162ZM22.0893 21.6818C22.0893 22.1359 22.1523 22.532 22.2783 22.87C22.4042 23.2081 22.5865 23.4716 22.8251 23.6605C23.0638 23.8461 23.3538 23.9389 23.6952 23.9389C24.0399 23.9389 24.3315 23.8445 24.5702 23.6555C24.8088 23.4633 24.9894 23.1982 25.1121 22.8601C25.238 22.5187 25.301 22.1259 25.301 21.6818C25.301 21.241 25.2397 20.8532 25.117 20.5185C24.9944 20.1837 24.8138 19.9219 24.5751 19.733C24.3365 19.544 24.0432 19.4496 23.6952 19.4496C23.3505 19.4496 23.0588 19.5407 22.8202 19.723C22.5848 19.9053 22.4042 20.1638 22.2783 20.4986C22.1523 20.8333 22.0893 21.2277 22.0893 21.6818ZM30.2346 23.3026L30.2396 20.7621H30.5478L32.9938 17.8636H35.4249L32.1387 21.7017H31.6366L30.2346 23.3026ZM28.3156 25.5V15.3182H30.4335V25.5H28.3156ZM33.0883 25.5L30.8411 22.174L32.2531 20.6776L35.5691 25.5H33.0883Z" fill="white"/>
<path d="M42.179 17.5H41.2557L43.9261 10.2273H44.8352L47.5057 17.5H46.5824L44.4091 11.3778H44.3523L42.179 17.5ZM42.5199 14.6591H46.2415V15.4403H42.5199V14.6591ZM49.1129 10.2273V17.5H48.2749V10.2273H49.1129ZM54.2615 13.267L53.5087 13.4801C53.4614 13.3546 53.3915 13.2327 53.2992 13.1143C53.2092 12.9936 53.0861 12.8942 52.9299 12.8161C52.7736 12.7379 52.5736 12.6989 52.3297 12.6989C51.9959 12.6989 51.7177 12.7758 51.4952 12.9297C51.275 13.0812 51.165 13.2741 51.165 13.5085C51.165 13.7169 51.2407 13.8814 51.3922 14.0021C51.5437 14.1229 51.7805 14.2235 52.1025 14.304L52.9121 14.5028C53.3998 14.6212 53.7632 14.8023 54.0023 15.0462C54.2414 15.2876 54.361 15.599 54.361 15.9801C54.361 16.2926 54.271 16.572 54.0911 16.8182C53.9135 17.0644 53.665 17.2585 53.3453 17.4006C53.0257 17.5426 52.6541 17.6136 52.2303 17.6136C51.6739 17.6136 51.2135 17.4929 50.8489 17.2514C50.4843 17.0099 50.2535 16.6572 50.1564 16.1932L50.9519 15.9943C51.0276 16.2879 51.1709 16.508 51.3816 16.6548C51.5946 16.8016 51.8728 16.875 52.2161 16.875C52.6067 16.875 52.9168 16.7921 53.1465 16.6264C53.3785 16.4583 53.4945 16.2571 53.4945 16.0227C53.4945 15.8333 53.4282 15.6747 53.2956 15.5469C53.1631 15.4167 52.9595 15.3196 52.6848 15.2557L51.7757 15.0426C51.2762 14.9242 50.9093 14.7408 50.6749 14.4922C50.4429 14.2412 50.3269 13.9276 50.3269 13.5511C50.3269 13.2434 50.4133 12.9711 50.5861 12.7344C50.7613 12.4976 50.9992 12.3118 51.2999 12.1768C51.6029 12.0419 51.9462 11.9744 52.3297 11.9744C52.8695 11.9744 53.2933 12.0928 53.601 12.3295C53.9112 12.5663 54.1313 12.8788 54.2615 13.267ZM58.3469 17.5H57.4237L60.0941 10.2273H61.0032L63.6737 17.5H62.7504L60.5771 11.3778H60.5202L58.3469 17.5ZM58.6879 14.6591H62.4094V15.4403H58.6879V14.6591ZM64.5565 17.5V10.2273H67.0138C67.5844 10.2273 68.0508 10.3303 68.413 10.5362C68.7776 10.7398 69.0475 11.0156 69.2227 11.3636C69.3978 11.7116 69.4854 12.0999 69.4854 12.5284C69.4854 12.9569 69.3978 13.3464 69.2227 13.6967C69.0498 14.0471 68.7823 14.3265 68.4201 14.5348C68.0579 14.7408 67.5939 14.8438 67.0281 14.8438H65.2667V14.0625H66.9996C67.3903 14.0625 67.704 13.995 67.9407 13.8601C68.1774 13.7251 68.3491 13.5429 68.4556 13.3132C68.5645 13.0812 68.619 12.8196 68.619 12.5284C68.619 12.2372 68.5645 11.9768 68.4556 11.7472C68.3491 11.5175 68.1763 11.3376 67.9371 11.2074C67.698 11.0748 67.3808 11.0085 66.9854 11.0085H65.4371V17.5H64.5565ZM70.6541 17.5V10.2273H71.5348V13.8352H71.62L74.8871 10.2273H76.0376L72.9837 13.5085L76.0376 17.5H74.9723L72.4439 14.1193L71.5348 15.142V17.5H70.6541ZM81.8054 12.0455V12.7557H78.8651V12.0455H81.8054ZM79.7457 17.5V11.2926C79.7457 10.9801 79.8191 10.7197 79.9659 10.5114C80.1127 10.303 80.3033 10.1468 80.5376 10.0426C80.772 9.93845 81.0194 9.88636 81.2798 9.88636C81.4858 9.88636 81.6539 9.90294 81.7841 9.93608C81.9143 9.96922 82.0114 10 82.0753 10.0284L81.8338 10.7528C81.7912 10.7386 81.732 10.7209 81.6562 10.6996C81.5829 10.6783 81.4858 10.6676 81.3651 10.6676C81.0881 10.6676 80.888 10.7375 80.7649 10.8771C80.6442 11.0168 80.5838 11.2216 80.5838 11.4915V17.5H79.7457ZM86.1674 15.2699V12.0455H87.0055V17.5H86.1674V16.5767H86.1106C85.9828 16.8537 85.7839 17.0893 85.514 17.2834C85.2441 17.4751 84.9032 17.571 84.4913 17.571C84.1504 17.571 83.8474 17.4964 83.5822 17.3473C83.3171 17.1958 83.1087 16.9685 82.9572 16.6655C82.8057 16.3601 82.7299 15.9754 82.7299 15.5114V12.0455H83.568V15.4545C83.568 15.8523 83.6793 16.1695 83.9018 16.4062C84.1267 16.643 84.4132 16.7614 84.7612 16.7614C84.9695 16.7614 85.1814 16.7081 85.3968 16.6016C85.6146 16.495 85.7969 16.3317 85.9437 16.1115C86.0929 15.8913 86.1674 15.6108 86.1674 15.2699ZM83.8521 11.1364C83.7029 11.1364 83.5704 11.0795 83.4544 10.9659C83.3407 10.8499 83.2839 10.7173 83.2839 10.5682C83.2839 10.4048 83.3407 10.2699 83.4544 10.1634C83.5704 10.0545 83.7029 10 83.8521 10C84.0154 10 84.1504 10.0545 84.2569 10.1634C84.3658 10.2699 84.4203 10.4048 84.4203 10.5682C84.4203 10.7173 84.3658 10.8499 84.2569 10.9659C84.1504 11.0795 84.0154 11.1364 83.8521 11.1364ZM85.8975 11.1364C85.7484 11.1364 85.6158 11.0795 85.4998 10.9659C85.3862 10.8499 85.3294 10.7173 85.3294 10.5682C85.3294 10.4048 85.3862 10.2699 85.4998 10.1634C85.6158 10.0545 85.7484 10 85.8975 10C86.0609 10 86.1958 10.0545 86.3024 10.1634C86.4113 10.2699 86.4657 10.4048 86.4657 10.5682C86.4657 10.7173 86.4113 10.8499 86.3024 10.9659C86.1958 11.0795 86.0609 11.1364 85.8975 11.1364ZM88.2905 17.5V12.0455H89.1001V12.8693H89.157C89.2564 12.5994 89.4363 12.3804 89.6967 12.2124C89.9571 12.0443 90.2507 11.9602 90.5774 11.9602C90.639 11.9602 90.7159 11.9614 90.8082 11.9638C90.9006 11.9661 90.9704 11.9697 91.0178 11.9744V12.8267C90.9893 12.8196 90.9242 12.8089 90.8224 12.7947C90.723 12.7782 90.6177 12.7699 90.5064 12.7699C90.2412 12.7699 90.0045 12.8255 89.7962 12.9368C89.5902 13.0457 89.4268 13.1972 89.3061 13.3913C89.1877 13.5831 89.1286 13.8021 89.1286 14.0483V17.5H88.2905ZM94.7356 17.5H93.8123L96.4828 10.2273H97.3919L100.062 17.5H99.139L96.9657 11.3778H96.9089L94.7356 17.5ZM95.0765 14.6591H98.7981V15.4403H95.0765V14.6591ZM101.67 14.2188V17.5H100.831V12.0455H101.641V12.8977H101.712C101.84 12.6207 102.034 12.3982 102.295 12.2301C102.555 12.0597 102.891 11.9744 103.303 11.9744C103.672 11.9744 103.996 12.0502 104.273 12.2017C104.55 12.3509 104.765 12.5781 104.919 12.8835C105.073 13.1866 105.15 13.5701 105.15 14.0341V17.5H104.312V14.0909C104.312 13.6624 104.2 13.3286 103.978 13.0895C103.755 12.848 103.45 12.7273 103.062 12.7273C102.794 12.7273 102.555 12.7853 102.344 12.9013C102.136 13.0173 101.971 13.1866 101.851 13.4091C101.73 13.6316 101.67 13.9015 101.67 14.2188ZM108.491 17.6136C108.036 17.6136 107.635 17.4988 107.287 17.2692C106.939 17.0372 106.667 16.7105 106.47 16.2891C106.274 15.8653 106.175 15.3646 106.175 14.7869C106.175 14.214 106.274 13.7169 106.47 13.2955C106.667 12.8741 106.94 12.5485 107.29 12.3189C107.641 12.0893 108.046 11.9744 108.505 11.9744C108.86 11.9744 109.141 12.0336 109.347 12.152C109.555 12.268 109.714 12.4006 109.822 12.5497C109.934 12.6965 110.02 12.8172 110.082 12.9119H110.153V10.2273H110.991V17.5H110.181V16.6619H110.082C110.02 16.7614 109.933 16.8868 109.819 17.0384C109.705 17.1875 109.543 17.3213 109.332 17.4396C109.122 17.5556 108.841 17.6136 108.491 17.6136ZM108.604 16.8608C108.941 16.8608 109.225 16.7732 109.457 16.598C109.689 16.4205 109.865 16.1754 109.986 15.8629C110.107 15.5481 110.167 15.1847 110.167 14.7727C110.167 14.3655 110.108 14.0092 109.989 13.7038C109.871 13.3961 109.696 13.157 109.464 12.9865C109.232 12.8137 108.945 12.7273 108.604 12.7273C108.249 12.7273 107.953 12.8184 107.717 13.0007C107.482 13.1806 107.306 13.4257 107.188 13.7358C107.071 14.0436 107.013 14.3892 107.013 14.7727C107.013 15.161 107.073 15.5137 107.191 15.831C107.312 16.1458 107.489 16.3968 107.724 16.5838C107.96 16.7685 108.254 16.8608 108.604 16.8608ZM112.392 17.5V12.0455H113.202V12.8693H113.259C113.358 12.5994 113.538 12.3804 113.798 12.2124C114.059 12.0443 114.352 11.9602 114.679 11.9602C114.741 11.9602 114.817 11.9614 114.91 11.9638C115.002 11.9661 115.072 11.9697 115.119 11.9744V12.8267C115.091 12.8196 115.026 12.8089 114.924 12.7947C114.825 12.7782 114.719 12.7699 114.608 12.7699C114.343 12.7699 114.106 12.8255 113.898 12.9368C113.692 13.0457 113.528 13.1972 113.408 13.3913C113.289 13.5831 113.23 13.8021 113.23 14.0483V17.5H112.392ZM117.913 17.6136C117.42 17.6136 116.988 17.4964 116.616 17.2621C116.247 17.0277 115.958 16.6998 115.75 16.2784C115.544 15.857 115.441 15.3646 115.441 14.8011C115.441 14.233 115.544 13.737 115.75 13.3132C115.958 12.8894 116.247 12.5604 116.616 12.326C116.988 12.0916 117.42 11.9744 117.913 11.9744C118.405 11.9744 118.836 12.0916 119.205 12.326C119.577 12.5604 119.866 12.8894 120.072 13.3132C120.28 13.737 120.384 14.233 120.384 14.8011C120.384 15.3646 120.28 15.857 120.072 16.2784C119.866 16.6998 119.577 17.0277 119.205 17.2621C118.836 17.4964 118.405 17.6136 117.913 17.6136ZM117.913 16.8608C118.287 16.8608 118.594 16.7649 118.836 16.5732C119.077 16.3814 119.256 16.1293 119.372 15.8168C119.488 15.5043 119.546 15.1657 119.546 14.8011C119.546 14.4366 119.488 14.0968 119.372 13.782C119.256 13.4671 119.077 13.2126 118.836 13.0185C118.594 12.8243 118.287 12.7273 117.913 12.7273C117.539 12.7273 117.231 12.8243 116.989 13.0185C116.748 13.2126 116.569 13.4671 116.453 13.782C116.337 14.0968 116.279 14.4366 116.279 14.8011C116.279 15.1657 116.337 15.5043 116.453 15.8168C116.569 16.1293 116.748 16.3814 116.989 16.5732C117.231 16.7649 117.539 16.8608 117.913 16.8608ZM121.414 17.5V12.0455H122.252V17.5H121.414ZM121.84 11.1364C121.676 11.1364 121.535 11.0807 121.417 10.9695C121.301 10.8582 121.243 10.7244 121.243 10.5682C121.243 10.4119 121.301 10.2782 121.417 10.1669C121.535 10.0556 121.676 10 121.84 10C122.003 10 122.143 10.0556 122.259 10.1669C122.377 10.2782 122.436 10.4119 122.436 10.5682C122.436 10.7244 122.377 10.8582 122.259 10.9695C122.143 11.0807 122.003 11.1364 121.84 11.1364ZM125.596 17.6136C125.142 17.6136 124.74 17.4988 124.392 17.2692C124.044 17.0372 123.772 16.7105 123.576 16.2891C123.379 15.8653 123.281 15.3646 123.281 14.7869C123.281 14.214 123.379 13.7169 123.576 13.2955C123.772 12.8741 124.046 12.5485 124.396 12.3189C124.746 12.0893 125.151 11.9744 125.61 11.9744C125.966 11.9744 126.246 12.0336 126.452 12.152C126.66 12.268 126.819 12.4006 126.928 12.5497C127.039 12.6965 127.126 12.8172 127.187 12.9119H127.258V10.2273H128.096V17.5H127.287V16.6619H127.187C127.126 16.7614 127.038 16.8868 126.924 17.0384C126.811 17.1875 126.649 17.3213 126.438 17.4396C126.227 17.5556 125.947 17.6136 125.596 17.6136ZM125.71 16.8608C126.046 16.8608 126.33 16.7732 126.562 16.598C126.794 16.4205 126.971 16.1754 127.091 15.8629C127.212 15.5481 127.272 15.1847 127.272 14.7727C127.272 14.3655 127.213 14.0092 127.095 13.7038C126.976 13.3961 126.801 13.157 126.569 12.9865C126.337 12.8137 126.051 12.7273 125.71 12.7273C125.355 12.7273 125.059 12.8184 124.822 13.0007C124.588 13.1806 124.411 13.4257 124.293 13.7358C124.177 14.0436 124.119 14.3892 124.119 14.7727C124.119 15.161 124.178 15.5137 124.297 15.831C124.417 16.1458 124.595 16.3968 124.829 16.5838C125.066 16.7685 125.359 16.8608 125.71 16.8608ZM42.6051 26.2188V29.5H41.767V22.2273H42.6051V24.8977H42.6761C42.804 24.616 42.9957 24.3923 43.2514 24.2266C43.5095 24.0585 43.8527 23.9744 44.2812 23.9744C44.6529 23.9744 44.9785 24.049 45.2578 24.1982C45.5372 24.3449 45.7538 24.571 45.9077 24.8764C46.0639 25.1795 46.142 25.5653 46.142 26.0341V29.5H45.304V26.0909C45.304 25.6577 45.1915 25.3227 44.9666 25.0859C44.7441 24.8468 44.4351 24.7273 44.0398 24.7273C43.7652 24.7273 43.5189 24.7853 43.3011 24.9013C43.0857 25.0173 42.9152 25.1866 42.7898 25.4091C42.6667 25.6316 42.6051 25.9015 42.6051 26.2188ZM49.7122 29.6136C49.1866 29.6136 48.7333 29.4976 48.3521 29.2656C47.9733 29.0312 47.6809 28.7045 47.475 28.2855C47.2714 27.8641 47.1696 27.3741 47.1696 26.8153C47.1696 26.2566 47.2714 25.7642 47.475 25.3381C47.6809 24.9096 47.9674 24.5758 48.3343 24.3366C48.7037 24.0952 49.1345 23.9744 49.627 23.9744C49.911 23.9744 50.1916 24.0218 50.4686 24.1165C50.7456 24.2112 50.9977 24.3651 51.225 24.5781C51.4522 24.7888 51.6333 25.0682 51.7683 25.4162C51.9032 25.7642 51.9707 26.1927 51.9707 26.7017V27.0568H47.7662V26.3324H51.1184C51.1184 26.0246 51.0569 25.75 50.9338 25.5085C50.813 25.267 50.6402 25.0765 50.4153 24.9368C50.1928 24.7971 49.93 24.7273 49.627 24.7273C49.2931 24.7273 49.0043 24.8101 48.7605 24.9759C48.519 25.1392 48.3332 25.3523 48.2029 25.6151C48.0727 25.8778 48.0076 26.1596 48.0076 26.4602V26.9432C48.0076 27.3551 48.0787 27.7043 48.2207 27.9908C48.3651 28.2749 48.5652 28.4915 48.8208 28.6406C49.0765 28.7874 49.3736 28.8608 49.7122 28.8608C49.9324 28.8608 50.1312 28.83 50.3088 28.7685C50.4887 28.7045 50.6438 28.6098 50.774 28.4844C50.9042 28.3565 51.0048 28.1979 51.0758 28.0085L51.8855 28.2358C51.8002 28.5104 51.657 28.7519 51.4558 28.9602C51.2546 29.1662 51.006 29.3272 50.71 29.4432C50.4141 29.5568 50.0815 29.6136 49.7122 29.6136ZM52.9956 29.5V24.0455H53.8052V24.8693H53.862C53.9615 24.5994 54.1414 24.3804 54.4018 24.2124C54.6622 24.0443 54.9558 23.9602 55.2825 23.9602C55.344 23.9602 55.421 23.9614 55.5133 23.9638C55.6056 23.9661 55.6755 23.9697 55.7228 23.9744V24.8267C55.6944 24.8196 55.6293 24.8089 55.5275 24.7947C55.4281 24.7782 55.3227 24.7699 55.2115 24.7699C54.9463 24.7699 54.7096 24.8255 54.5012 24.9368C54.2953 25.0457 54.1319 25.1972 54.0112 25.3913C53.8928 25.5831 53.8336 25.8021 53.8336 26.0483V29.5H52.9956ZM59.9038 27.2699V24.0455H60.7418V29.5H59.9038V28.5767H59.8469C59.7191 28.8537 59.5202 29.0893 59.2504 29.2834C58.9805 29.4751 58.6396 29.571 58.2276 29.571C57.8867 29.571 57.5837 29.4964 57.3185 29.3473C57.0534 29.1958 56.8451 28.9685 56.6935 28.6655C56.542 28.3601 56.4663 27.9754 56.4663 27.5114V24.0455H57.3043V27.4545C57.3043 27.8523 57.4156 28.1695 57.6381 28.4062C57.863 28.643 58.1495 28.7614 58.4975 28.7614C58.7058 28.7614 58.9177 28.7081 59.1332 28.6016C59.351 28.495 59.5333 28.3317 59.68 28.1115C59.8292 27.8913 59.9038 27.6108 59.9038 27.2699ZM62.8649 26.2188V29.5H62.0268V24.0455H62.8365V24.8977H62.9075C63.0353 24.6207 63.2295 24.3982 63.4899 24.2301C63.7503 24.0597 64.0865 23.9744 64.4984 23.9744C64.8677 23.9744 65.1909 24.0502 65.4679 24.2017C65.7449 24.3509 65.9603 24.5781 66.1142 24.8835C66.2681 25.1866 66.345 25.5701 66.345 26.0341V29.5H65.5069V26.0909C65.5069 25.6624 65.3957 25.3286 65.1731 25.0895C64.9506 24.848 64.6452 24.7273 64.2569 24.7273C63.9894 24.7273 63.7503 24.7853 63.5396 24.9013C63.3313 25.0173 63.1667 25.1866 63.046 25.4091C62.9252 25.6316 62.8649 25.9015 62.8649 26.2188ZM69.9986 24.0455V24.7557H67.1719V24.0455H69.9986ZM67.9957 22.7386H68.8338V27.9375C68.8338 28.1742 68.8681 28.3518 68.9368 28.4702C69.0078 28.5862 69.0978 28.6643 69.2067 28.7045C69.3179 28.7424 69.4351 28.7614 69.5582 28.7614C69.6506 28.7614 69.7263 28.7566 69.7855 28.7472C69.8447 28.7353 69.892 28.7259 69.9276 28.7188L70.098 29.4716C70.0412 29.4929 69.9619 29.5142 69.8601 29.5355C69.7583 29.5592 69.6293 29.571 69.473 29.571C69.2363 29.571 69.0043 29.5201 68.777 29.4183C68.5521 29.3165 68.3651 29.1615 68.2159 28.9531C68.0691 28.7448 67.9957 28.482 67.9957 28.1648V22.7386ZM73.2376 29.6136C72.712 29.6136 72.2586 29.4976 71.8775 29.2656C71.4987 29.0312 71.2063 28.7045 71.0004 28.2855C70.7968 27.8641 70.695 27.3741 70.695 26.8153C70.695 26.2566 70.7968 25.7642 71.0004 25.3381C71.2063 24.9096 71.4928 24.5758 71.8597 24.3366C72.229 24.0952 72.6599 23.9744 73.1523 23.9744C73.4364 23.9744 73.717 24.0218 73.994 24.1165C74.271 24.2112 74.5231 24.3651 74.7504 24.5781C74.9776 24.7888 75.1587 25.0682 75.2937 25.4162C75.4286 25.7642 75.4961 26.1927 75.4961 26.7017V27.0568H71.2915V26.3324H74.6438C74.6438 26.0246 74.5823 25.75 74.4592 25.5085C74.3384 25.267 74.1656 25.0765 73.9407 24.9368C73.7182 24.7971 73.4554 24.7273 73.1523 24.7273C72.8185 24.7273 72.5297 24.8101 72.2859 24.9759C72.0444 25.1392 71.8585 25.3523 71.7283 25.6151C71.5981 25.8778 71.533 26.1596 71.533 26.4602V26.9432C71.533 27.3551 71.604 27.7043 71.7461 27.9908C71.8905 28.2749 72.0906 28.4915 72.3462 28.6406C72.6019 28.7874 72.899 28.8608 73.2376 28.8608C73.4577 28.8608 73.6566 28.83 73.8342 28.7685C74.0141 28.7045 74.1692 28.6098 74.2994 28.4844C74.4296 28.3565 74.5302 28.1979 74.6012 28.0085L75.4109 28.2358C75.3256 28.5104 75.1824 28.7519 74.9812 28.9602C74.7799 29.1662 74.5314 29.3272 74.2354 29.4432C73.9395 29.5568 73.6069 29.6136 73.2376 29.6136ZM76.521 29.5V24.0455H77.3306V24.8693H77.3874C77.4869 24.5994 77.6668 24.3804 77.9272 24.2124C78.1876 24.0443 78.4812 23.9602 78.8079 23.9602C78.8694 23.9602 78.9464 23.9614 79.0387 23.9638C79.131 23.9661 79.2009 23.9697 79.2482 23.9744V24.8267C79.2198 24.8196 79.1547 24.8089 79.0529 24.7947C78.9535 24.7782 78.8481 24.7699 78.7369 24.7699C78.4717 24.7699 78.235 24.8255 78.0266 24.9368C77.8207 25.0457 77.6573 25.1972 77.5366 25.3913C77.4182 25.5831 77.359 25.8021 77.359 26.0483V29.5H76.521ZM80.8297 22.2273V29.5H79.9917V22.2273H80.8297ZM83.7198 29.6278C83.3742 29.6278 83.0605 29.5627 82.7788 29.4325C82.497 29.3 82.2733 29.1094 82.1076 28.8608C81.9419 28.6098 81.859 28.3068 81.859 27.9517C81.859 27.6392 81.9206 27.3859 82.0437 27.1918C82.1668 26.9953 82.3313 26.8414 82.5373 26.7301C82.7433 26.6188 82.9705 26.536 83.2191 26.4815C83.4701 26.4247 83.7222 26.3797 83.9755 26.3466C84.3069 26.304 84.5756 26.272 84.7816 26.2507C84.9899 26.227 85.1415 26.188 85.2362 26.1335C85.3332 26.0791 85.3817 25.9844 85.3817 25.8494V25.821C85.3817 25.4706 85.2859 25.1984 85.0941 25.0043C84.9047 24.8101 84.6171 24.7131 84.2312 24.7131C83.8311 24.7131 83.5174 24.8007 83.2901 24.9759C83.0629 25.151 82.9031 25.3381 82.8107 25.5369L82.0153 25.2528C82.1573 24.9214 82.3467 24.6634 82.5835 24.4787C82.8226 24.2917 83.083 24.1615 83.3647 24.0881C83.6488 24.0123 83.9281 23.9744 84.2028 23.9744C84.378 23.9744 84.5792 23.9957 84.8065 24.0384C85.0361 24.0786 85.2575 24.1626 85.4705 24.2905C85.686 24.4183 85.8647 24.6113 86.0067 24.8693C86.1488 25.1274 86.2198 25.473 86.2198 25.9062V29.5H85.3817V28.7614H85.3391C85.2823 28.8797 85.1876 29.0064 85.055 29.1413C84.9225 29.2763 84.7461 29.3911 84.5259 29.4858C84.3058 29.5805 84.0371 29.6278 83.7198 29.6278ZM83.8477 28.875C84.1791 28.875 84.4585 28.8099 84.6857 28.6797C84.9154 28.5495 85.0882 28.3814 85.2042 28.1754C85.3226 27.9695 85.3817 27.7528 85.3817 27.5256V26.7585C85.3462 26.8011 85.2681 26.8402 85.1474 26.8757C85.029 26.9089 84.8917 26.9384 84.7354 26.9645C84.5816 26.9882 84.4312 27.0095 84.2844 27.0284C84.14 27.045 84.0228 27.0592 83.9329 27.071C83.7151 27.0994 83.5115 27.1456 83.3221 27.2095C83.1351 27.2711 82.9835 27.3646 82.8675 27.4901C82.7539 27.6132 82.6971 27.7812 82.6971 27.9943C82.6971 28.2855 82.8048 28.5057 83.0202 28.6548C83.238 28.8016 83.5138 28.875 83.8477 28.875ZM89.5591 29.6136C89.1046 29.6136 88.7033 29.4988 88.3553 29.2692C88.0073 29.0372 87.735 28.7105 87.5385 28.2891C87.342 27.8653 87.2438 27.3646 87.2438 26.7869C87.2438 26.214 87.342 25.7169 87.5385 25.2955C87.735 24.8741 88.0085 24.5485 88.3588 24.3189C88.7092 24.0893 89.1141 23.9744 89.5733 23.9744C89.9284 23.9744 90.209 24.0336 90.415 24.152C90.6233 24.268 90.7819 24.4006 90.8908 24.5497C91.0021 24.6965 91.0885 24.8172 91.15 24.9119H91.2211V22.2273H92.0591V29.5H91.2495V28.6619H91.15C91.0885 28.7614 91.0009 28.8868 90.8873 29.0384C90.7736 29.1875 90.6114 29.3213 90.4007 29.4396C90.19 29.5556 89.9095 29.6136 89.5591 29.6136ZM89.6728 28.8608C90.0089 28.8608 90.293 28.7732 90.525 28.598C90.757 28.4205 90.9334 28.1754 91.0542 27.8629C91.1749 27.5481 91.2353 27.1847 91.2353 26.7727C91.2353 26.3655 91.1761 26.0092 91.0577 25.7038C90.9393 25.3961 90.7641 25.157 90.5321 24.9865C90.3001 24.8137 90.0137 24.7273 89.6728 24.7273C89.3176 24.7273 89.0217 24.8184 88.785 25.0007C88.5506 25.1806 88.3742 25.4257 88.2559 25.7358C88.1399 26.0436 88.0819 26.3892 88.0819 26.7727C88.0819 27.161 88.141 27.5137 88.2594 27.831C88.3801 28.1458 88.5577 28.3968 88.7921 28.5838C89.0288 28.7685 89.3224 28.8608 89.6728 28.8608ZM95.7473 29.6136C95.2218 29.6136 94.7684 29.4976 94.3873 29.2656C94.0085 29.0312 93.7161 28.7045 93.5101 28.2855C93.3065 27.8641 93.2047 27.3741 93.2047 26.8153C93.2047 26.2566 93.3065 25.7642 93.5101 25.3381C93.7161 24.9096 94.0025 24.5758 94.3695 24.3366C94.7388 24.0952 95.1697 23.9744 95.6621 23.9744C95.9462 23.9744 96.2267 24.0218 96.5037 24.1165C96.7807 24.2112 97.0328 24.3651 97.2601 24.5781C97.4874 24.7888 97.6685 25.0682 97.8034 25.4162C97.9384 25.7642 98.0059 26.1927 98.0059 26.7017V27.0568H93.8013V26.3324H97.1536C97.1536 26.0246 97.092 25.75 96.9689 25.5085C96.8482 25.267 96.6754 25.0765 96.4505 24.9368C96.2279 24.7971 95.9651 24.7273 95.6621 24.7273C95.3283 24.7273 95.0395 24.8101 94.7956 24.9759C94.5542 25.1392 94.3683 25.3523 94.2381 25.6151C94.1079 25.8778 94.0428 26.1596 94.0428 26.4602V26.9432C94.0428 27.3551 94.1138 27.7043 94.2559 27.9908C94.4003 28.2749 94.6003 28.4915 94.856 28.6406C95.1117 28.7874 95.4088 28.8608 95.7473 28.8608C95.9675 28.8608 96.1664 28.83 96.3439 28.7685C96.5239 28.7045 96.6789 28.6098 96.8091 28.4844C96.9393 28.3565 97.04 28.1979 97.111 28.0085L97.9206 28.2358C97.8354 28.5104 97.6922 28.7519 97.4909 28.9602C97.2897 29.1662 97.0411 29.3272 96.7452 29.4432C96.4493 29.5568 96.1167 29.6136 95.7473 29.6136ZM99.8688 26.2188V29.5H99.0307V24.0455H99.8404V24.8977H99.9114C100.039 24.6207 100.233 24.3982 100.494 24.2301C100.754 24.0597 101.09 23.9744 101.502 23.9744C101.872 23.9744 102.195 24.0502 102.472 24.2017C102.749 24.3509 102.964 24.5781 103.118 24.8835C103.272 25.1866 103.349 25.5701 103.349 26.0341V29.5H102.511V26.0909C102.511 25.6624 102.4 25.3286 102.177 25.0895C101.954 24.848 101.649 24.7273 101.261 24.7273C100.993 24.7273 100.754 24.7853 100.544 24.9013C100.335 25.0173 100.171 25.1866 100.05 25.4091C99.9292 25.6316 99.8688 25.9015 99.8688 26.2188Z" fill="white"/>
<rect x="0.425" y="0.425" width="137.15" height="39.15" rx="7.575" stroke="#A6A6A6" stroke-width="0.85"/>
</svg>
