<svg width="23" height="20" viewBox="0 0 23 20" fill="none" xmlns="http://www.w3.org/2000/svg">
<path opacity="0.7" d="M5.59766 0.839844C5.46875 0.710938 5.29688 0.667969 5.125 0.667969C4.91016 0.667969 4.73828 0.710938 4.60938 0.839844L1.17188 4.96484C0.742188 5.39453 1.04297 6.125 1.6875 6.125H3.75V19.1875C3.75 19.5742 4.05078 19.875 4.4375 19.875H5.8125C6.15625 19.875 6.5 19.5742 6.5 19.1875V6.125H8.5625C9.16406 6.125 9.46484 5.39453 9.03516 4.96484L5.59766 0.839844ZM21.7969 0.625H13.2031C12.5156 0.625 12 1.18359 12 1.82812V9.04688C12 9.73438 12.5156 10.25 13.2031 10.25H21.7969C22.4414 10.25 23 9.73438 23 9.04688V1.82812C23 1.18359 22.4414 0.625 21.7969 0.625ZM19.3906 13H12.8594C12.3438 13 12 13.3867 12 13.8594V19.0156C12 19.5312 12.3438 19.875 12.8594 19.875H19.3906C19.8633 19.875 20.25 19.5312 20.25 19.0156V13.8594C20.25 13.3867 19.8633 13 19.3906 13Z" fill="white"/>
</svg>
