<svg width="175" height="53" viewBox="0 0 175 53" fill="none" xmlns="http://www.w3.org/2000/svg">
<rect width="174.128" height="52" transform="translate(0.436035 0.5)" fill="#181924"/>
<g clip-path="url(#clip0)">
<path d="M27.5664 19.2305C28.4027 19.2057 29.1217 19.3379 29.7613 19.756C30.8339 20.4568 31.4487 21.4418 31.4933 22.7309C31.5297 23.8003 31.4933 24.8795 31.4933 25.9885C31.6768 25.9885 31.8239 26.0083 31.966 26.0083C33.1626 26.0083 34.3575 26.0083 35.5541 26.0083C36.3094 26.0083 36.6614 26.4232 36.5292 27.1652C36.0549 29.8559 35.5756 32.1234 35.0897 34.8125C34.9724 35.457 34.6352 35.7264 33.9708 35.7297C32.9692 35.7297 31.9693 35.7297 30.905 35.7297V43.9934H29.201V31.7813H15.8237V44H14.0553V35.7628C13.8603 35.7545 13.7132 35.7413 13.5595 35.7413C12.7083 35.7413 11.8555 35.7413 11.0027 35.7413C10.3301 35.7314 10.0111 35.4702 9.89373 34.8158C9.44088 32.3036 8.99629 30.2311 8.5484 27.7305C8.51369 27.5421 8.47899 27.352 8.4542 27.1619C8.35338 26.3967 8.68393 26.005 9.44584 26.005C10.449 26.005 11.4523 26.005 12.4555 26.005H12.9149V25.5274C12.9149 23.8912 12.9149 23.0615 12.9232 21.4253C12.9232 20.7262 12.9596 20.2105 13.3926 19.6073C13.8256 19.004 13.9991 18.733 14.4503 18.0917C14.8387 17.5414 15.4221 17.3959 15.9047 17.7281C16.3873 18.0603 16.4303 18.5793 16.0237 19.1561C15.0965 20.4783 14.8371 20.394 14.8371 21.4369C14.8371 22.3029 14.8767 25.9852 14.8767 25.9852H16.9658V24.9506C16.9658 24.3044 16.9658 23.6581 16.9658 23.0119C16.9988 20.9262 18.3343 19.4552 20.4712 19.2106C18.7392 17.5942 18.0715 15.6407 18.597 13.3467C18.8292 12.3345 19.3397 11.4074 20.0709 10.67C20.8021 9.93263 21.7249 9.41435 22.7351 9.17371C23.7453 8.93306 24.8027 8.97963 25.7878 9.30815C26.7729 9.63667 27.6466 10.2341 28.3102 11.0329C30.148 13.2426 30.2141 16.8175 27.5664 19.2305ZM34.5079 27.7288H10.4887C10.8589 29.7898 11.2225 31.8111 11.5861 33.844H14.0371V31.1797C14.0371 30.4625 14.4156 30.1319 15.1032 30.1319H29.8687C30.4653 30.1319 30.9595 30.7236 30.9595 31.2888C30.9595 32.1383 30.9595 32.9845 30.9595 33.8704C31.7297 33.8704 32.4701 33.8803 33.2089 33.8572C33.2965 33.8572 33.4287 33.6919 33.4535 33.5712C33.5708 33.0358 33.6601 32.492 33.7576 31.9516L34.5079 27.7288ZM18.8185 25.81H29.6786C29.6786 24.8448 29.6869 23.911 29.6786 22.9772C29.6671 21.8467 28.9101 21.0914 27.7829 21.0898C25.4195 21.0898 23.0556 21.0898 20.6911 21.0898C19.711 21.0898 18.916 21.7079 18.8383 22.6698C18.7557 23.7094 18.8185 24.7506 18.8185 25.81ZM20.2547 14.7168C20.2431 15.2191 20.3312 15.7186 20.5138 16.1866C20.6964 16.6546 20.97 17.0818 21.3187 17.4434C21.6674 17.805 22.0843 18.0939 22.5454 18.2934C23.0064 18.4929 23.5025 18.5991 24.0048 18.6057C26.0955 18.6206 27.7945 16.9067 27.8061 14.7648C27.8177 12.6228 26.1203 10.8742 24.0544 10.866C21.9885 10.8577 20.2713 12.5732 20.2547 14.7168Z" fill="white"/>
</g>
<path d="M48.254 25.5V20.46H53.384V18.606H48.254V14.718H53.888V12.846H46.22V25.5H48.254ZM62.4385 25.5C62.2765 24.762 62.1865 23.934 62.1865 23.16V18.48C62.1865 17.004 61.4485 15.528 58.6225 15.528C56.2645 15.528 55.0225 16.554 55.0225 18.192V18.912L56.8405 19.002V18.282C56.8405 17.526 57.3625 17.004 58.4785 17.004C59.8645 17.004 60.2245 17.688 60.2245 18.57V19.794C56.1745 20.208 54.7885 20.856 54.7885 22.674V23.448C54.7885 24.6 55.7065 25.77 57.6505 25.77C58.7485 25.77 59.7745 25.194 60.3325 24.474C60.4045 24.816 60.5305 25.158 60.6745 25.5H62.4385ZM56.6965 23.142V22.62C56.6965 21.684 57.8125 21.45 60.2245 21.162V22.674C60.2245 23.304 59.4505 24.276 58.2085 24.276C57.1105 24.276 56.6965 23.772 56.6965 23.142ZM71.9718 22.854V22.26L70.0638 22.17V22.746C70.0638 23.574 69.6498 24.186 68.3538 24.186C66.8418 24.186 66.3558 23.232 66.3558 22.098V19.092C66.3558 17.922 66.7698 17.076 68.2998 17.076C69.6138 17.076 70.0458 17.76 70.0458 18.66V19.236L71.9538 19.146V18.534C71.9538 16.554 70.8378 15.492 68.2998 15.492C65.5278 15.492 64.3938 17.04 64.3938 19.128V22.278C64.3938 23.988 65.2398 25.806 68.2998 25.806C70.8738 25.806 71.9718 24.564 71.9718 22.854ZM81.56 22.962V22.566L79.76 22.476V22.962C79.76 23.682 79.382 24.222 77.906 24.222C76.286 24.222 75.836 23.286 75.836 22.17V21.108H81.596V19.038C81.596 16.932 80.642 15.492 77.852 15.492C74.99 15.492 73.82 17.04 73.82 19.128V22.26C73.82 23.988 74.684 25.806 77.834 25.806C80.516 25.806 81.56 24.618 81.56 22.962ZM75.836 19.038C75.836 17.832 76.25 17.058 77.888 17.058C79.31 17.058 79.706 17.796 79.706 18.768V19.614H75.836V19.038ZM92.0492 25.5V14.7H95.7032V12.846H86.3792V14.7H90.0332V25.5H92.0492ZM99.2161 25.5V19.236C99.2161 18.318 99.9541 17.22 101.502 17.22C103.032 17.22 103.302 18.192 103.302 19.218V25.5H105.264V18.678C105.264 17.166 104.616 15.528 102.186 15.528C100.548 15.528 99.5941 16.338 99.2161 17.112V12.18H97.2541V25.5H99.2161ZM115.257 22.962V22.566L113.457 22.476V22.962C113.457 23.682 113.079 24.222 111.603 24.222C109.983 24.222 109.533 23.286 109.533 22.17V21.108H115.293V19.038C115.293 16.932 114.339 15.492 111.549 15.492C108.687 15.492 107.517 17.04 107.517 19.128V22.26C107.517 23.988 108.381 25.806 111.531 25.806C114.213 25.806 115.257 24.618 115.257 22.962ZM109.533 19.038C109.533 17.832 109.947 17.058 111.585 17.058C113.007 17.058 113.403 17.796 113.403 18.768V19.614H109.533V19.038ZM123.316 25.5V20.46H128.446V18.606H123.316V14.718H128.95V12.846H121.282V25.5H123.316ZM137.501 25.5C137.339 24.762 137.249 23.934 137.249 23.16V18.48C137.249 17.004 136.511 15.528 133.685 15.528C131.327 15.528 130.085 16.554 130.085 18.192V18.912L131.903 19.002V18.282C131.903 17.526 132.425 17.004 133.541 17.004C134.927 17.004 135.287 17.688 135.287 18.57V19.794C131.237 20.208 129.851 20.856 129.851 22.674V23.448C129.851 24.6 130.769 25.77 132.713 25.77C133.811 25.77 134.837 25.194 135.395 24.474C135.467 24.816 135.593 25.158 135.737 25.5H137.501ZM131.759 23.142V22.62C131.759 21.684 132.875 21.45 135.287 21.162V22.674C135.287 23.304 134.513 24.276 133.271 24.276C132.173 24.276 131.759 23.772 131.759 23.142ZM147.034 22.854V22.26L145.126 22.17V22.746C145.126 23.574 144.712 24.186 143.416 24.186C141.904 24.186 141.418 23.232 141.418 22.098V19.092C141.418 17.922 141.832 17.076 143.362 17.076C144.676 17.076 145.108 17.76 145.108 18.66V19.236L147.016 19.146V18.534C147.016 16.554 145.9 15.492 143.362 15.492C140.59 15.492 139.456 17.04 139.456 19.128V22.278C139.456 23.988 140.302 25.806 143.362 25.806C145.936 25.806 147.034 24.564 147.034 22.854ZM154.033 25.626L154.159 24.132H152.899C151.873 24.132 151.441 23.754 151.441 22.638V17.364H153.997V15.798H151.441V13.332L149.479 13.566V15.798H148.111V17.364H149.479L149.461 22.872C149.461 24.528 149.965 25.77 152.323 25.77C152.971 25.77 153.583 25.698 154.033 25.626ZM162.833 22.566C162.833 21.288 162.185 20.55 160.673 20.118L158.873 19.614C157.991 19.362 157.469 19.038 157.469 18.264C157.469 17.58 157.865 17.04 159.161 17.04C160.313 17.04 160.799 17.472 160.799 18.21V18.984L162.599 18.876V17.868C162.599 16.626 161.681 15.492 159.197 15.492C156.839 15.492 155.543 16.536 155.543 18.318C155.543 19.56 156.047 20.55 157.847 21.054L159.539 21.522C160.583 21.81 160.907 22.134 160.907 22.818C160.907 23.556 160.493 24.186 159.107 24.186C157.649 24.186 157.307 23.7 157.307 22.854V22.206L155.381 22.296V23.232C155.381 24.456 156.083 25.806 158.945 25.806C161.663 25.806 162.833 24.582 162.833 22.566Z" fill="white"/>
<path opacity="0.5" d="M48.956 41.5C50.324 41.5 51.488 41.068 51.488 39.556V38.812C51.488 37.756 50.756 37.24 49.724 37.072V37.036C50.468 36.808 50.996 36.292 50.996 35.416V34.864C50.996 33.616 50.144 33.064 48.536 33.064H45.668V41.5H48.956ZM48.236 34.24C49.232 34.24 49.652 34.456 49.652 35.14V35.488C49.652 36.064 49.256 36.568 48.212 36.568H47.012V34.24H48.236ZM48.476 37.744C49.664 37.744 50.096 38.212 50.096 38.824V39.28C50.096 40.144 49.448 40.324 48.38 40.324H47.012V37.744H48.476ZM56.8911 40.696L56.9631 41.5H58.1271V35.032H56.8191V39.208C56.8191 39.772 56.3631 40.516 55.3551 40.516C54.3591 40.516 54.2031 39.94 54.2031 39.208V35.032H52.8951V39.568C52.8951 40.588 53.3151 41.68 54.9231 41.68C55.9791 41.68 56.6031 41.152 56.8911 40.696ZM61.4347 41.5V37.3C61.4347 36.724 61.9147 35.956 62.9467 35.956C63.9787 35.956 64.1587 36.604 64.1587 37.288V41.5H65.4667V36.952C65.4667 35.944 65.0347 34.852 63.4147 34.852C62.2867 34.852 61.6147 35.464 61.3507 35.956L61.3147 35.032H60.1267V41.5H61.4347ZM71.3512 40.696L71.4232 41.5H72.5752V32.62H71.2672V35.548C70.8832 35.152 70.3432 34.852 69.5512 34.852C67.9432 34.852 67.2352 35.932 67.2352 37.192V39.52C67.2352 40.66 67.8592 41.68 69.4192 41.68C70.1872 41.68 70.9552 41.296 71.3512 40.696ZM68.5432 39.376V37.264C68.5432 36.412 68.8912 35.896 69.9112 35.896C70.7752 35.896 71.2672 36.532 71.2672 37.06V39.4C71.2672 39.868 70.7872 40.6 69.7432 40.6C68.8432 40.6 68.5432 40.072 68.5432 39.376ZM79.5436 39.808V39.544L78.3436 39.484V39.808C78.3436 40.288 78.0916 40.648 77.1076 40.648C76.0276 40.648 75.7276 40.024 75.7276 39.28V38.572H79.5676V37.192C79.5676 35.788 78.9316 34.828 77.0716 34.828C75.1636 34.828 74.3836 35.86 74.3836 37.252V39.34C74.3836 40.492 74.9596 41.704 77.0596 41.704C78.8476 41.704 79.5436 40.912 79.5436 39.808ZM75.7276 37.192C75.7276 36.388 76.0036 35.872 77.0956 35.872C78.0436 35.872 78.3076 36.364 78.3076 37.012V37.576H75.7276V37.192ZM85.8965 39.544C85.8965 38.692 85.4645 38.2 84.4565 37.912L83.2565 37.576C82.6685 37.408 82.3205 37.192 82.3205 36.676C82.3205 36.22 82.5845 35.86 83.4485 35.86C84.2165 35.86 84.5405 36.148 84.5405 36.64V37.156L85.7405 37.084V36.412C85.7405 35.584 85.1285 34.828 83.4725 34.828C81.9005 34.828 81.0365 35.524 81.0365 36.712C81.0365 37.54 81.3725 38.2 82.5725 38.536L83.7005 38.848C84.3965 39.04 84.6125 39.256 84.6125 39.712C84.6125 40.204 84.3365 40.624 83.4125 40.624C82.4405 40.624 82.2125 40.3 82.2125 39.736V39.304L80.9285 39.364V39.988C80.9285 40.804 81.3965 41.704 83.3045 41.704C85.1165 41.704 85.8965 40.888 85.8965 39.544ZM90.6613 41.584L90.7453 40.588H89.9053C89.2213 40.588 88.9333 40.336 88.9333 39.592V36.076H90.6373V35.032H88.9333V33.388L87.6253 33.544V35.032H86.7133V36.076H87.6253L87.6133 39.748C87.6133 40.852 87.9493 41.68 89.5213 41.68C89.9533 41.68 90.3613 41.632 90.6613 41.584ZM96.9306 41.5C96.8226 41.008 96.7626 40.456 96.7626 39.94V36.82C96.7626 35.836 96.2706 34.852 94.3866 34.852C92.8146 34.852 91.9866 35.536 91.9866 36.628V37.108L93.1986 37.168V36.688C93.1986 36.184 93.5466 35.836 94.2906 35.836C95.2146 35.836 95.4546 36.292 95.4546 36.88V37.696C92.7546 37.972 91.8306 38.404 91.8306 39.616V40.132C91.8306 40.9 92.4426 41.68 93.7386 41.68C94.4706 41.68 95.1546 41.296 95.5266 40.816C95.5746 41.044 95.6586 41.272 95.7546 41.5H96.9306ZM93.1026 39.928V39.58C93.1026 38.956 93.8466 38.8 95.4546 38.608V39.616C95.4546 40.036 94.9386 40.684 94.1106 40.684C93.3786 40.684 93.1026 40.348 93.1026 39.928ZM102.653 35.716C102.293 35.248 101.693 34.852 100.781 34.852C99.1488 34.852 98.5008 36.028 98.5008 37.204V38.812C98.5008 39.988 99.0408 41.044 100.613 41.044C101.489 41.044 102.185 40.684 102.581 40.048V41.188C102.581 41.932 102.233 42.46 101.105 42.46C100.301 42.46 100.025 42.256 99.9288 41.776L98.7528 41.992C98.8728 42.832 99.3648 43.492 101.105 43.492C103.277 43.492 103.889 42.328 103.889 41.116V35.032H102.713L102.653 35.716ZM99.8088 38.644V37.216C99.8088 36.484 100.169 35.896 101.105 35.896C102.005 35.896 102.581 36.496 102.581 36.988V38.74C102.581 39.16 102.113 39.964 101.057 39.988C100.013 40.012 99.8088 39.34 99.8088 38.644ZM110.412 39.544C110.412 38.692 109.98 38.2 108.972 37.912L107.772 37.576C107.184 37.408 106.836 37.192 106.836 36.676C106.836 36.22 107.1 35.86 107.964 35.86C108.732 35.86 109.056 36.148 109.056 36.64V37.156L110.256 37.084V36.412C110.256 35.584 109.644 34.828 107.988 34.828C106.416 34.828 105.552 35.524 105.552 36.712C105.552 37.54 105.888 38.2 107.088 38.536L108.216 38.848C108.912 39.04 109.128 39.256 109.128 39.712C109.128 40.204 108.852 40.624 107.928 40.624C106.956 40.624 106.728 40.3 106.728 39.736V39.304L105.444 39.364V39.988C105.444 40.804 105.912 41.704 107.82 41.704C109.632 41.704 110.412 40.888 110.412 39.544ZM114.79 41.5L116.074 36.76H116.11L117.394 41.5H119.074L120.85 35.464V35.02H119.638L118.222 40.336H118.162L116.77 35.02H115.45L114.034 40.336H113.974L112.57 35.02H111.298V35.476L113.11 41.5H114.79ZM126.766 41.5C126.658 41.008 126.598 40.456 126.598 39.94V36.82C126.598 35.836 126.106 34.852 124.222 34.852C122.65 34.852 121.822 35.536 121.822 36.628V37.108L123.034 37.168V36.688C123.034 36.184 123.382 35.836 124.126 35.836C125.05 35.836 125.29 36.292 125.29 36.88V37.696C122.59 37.972 121.666 38.404 121.666 39.616V40.132C121.666 40.9 122.278 41.68 123.574 41.68C124.306 41.68 124.99 41.296 125.362 40.816C125.41 41.044 125.494 41.272 125.59 41.5H126.766ZM122.938 39.928V39.58C122.938 38.956 123.682 38.8 125.29 38.608V39.616C125.29 40.036 124.774 40.684 123.946 40.684C123.214 40.684 122.938 40.348 122.938 39.928ZM129.849 41.5V37.324C129.849 36.712 130.341 35.98 131.373 35.98C132.393 35.98 132.573 36.628 132.573 37.312V41.5H133.881V36.952C133.881 35.944 133.449 34.852 131.829 34.852C130.737 34.852 130.101 35.392 129.849 35.908V32.62H128.541V41.5H129.849ZM137.161 41.5V32.62H135.853V41.5H137.161ZM147.039 41.5V40.3H143.343L145.167 38.524C146.367 37.36 146.931 36.616 146.919 35.584L146.907 34.912C146.883 33.916 146.283 32.86 144.219 32.86C142.371 32.86 141.459 33.844 141.459 35.104V35.944L142.779 36.004V35.212C142.779 34.564 143.199 34 144.147 34C145.191 34 145.563 34.456 145.563 35.164V35.56C145.563 36.352 145.227 36.664 144.015 37.948L141.627 40.492V41.5H147.039ZM154.365 38.596V35.908C154.365 34.36 153.669 32.86 151.473 32.86C149.169 32.86 148.437 34.444 148.437 36.016V38.644C148.437 40.336 149.085 41.704 151.329 41.704C153.681 41.704 154.365 40.156 154.365 38.596ZM149.817 38.644V35.896C149.817 34.756 150.285 34.036 151.449 34.036C152.577 34.036 152.985 34.78 152.985 35.836V38.656C152.985 39.772 152.565 40.528 151.389 40.528C150.261 40.528 149.817 39.88 149.817 38.644ZM161.347 41.5V40.3H157.651L159.475 38.524C160.675 37.36 161.239 36.616 161.227 35.584L161.215 34.912C161.191 33.916 160.591 32.86 158.527 32.86C156.679 32.86 155.767 33.844 155.767 35.104V35.944L157.087 36.004V35.212C157.087 34.564 157.507 34 158.455 34C159.499 34 159.871 34.456 159.871 35.164V35.56C159.871 36.352 159.535 36.664 158.323 37.948L155.935 40.492V41.5H161.347ZM162.312 34.096V35.224L164.028 34.504V41.5H165.372V33.064H164.448L162.312 34.096Z" fill="white"/>
<defs>
<clipPath id="clip0">
<rect width="28.1279" height="35" fill="white" transform="translate(8.43604 9)"/>
</clipPath>
</defs>
</svg>
