<svg width="41" height="50" viewBox="0 0 41 50" fill="none" xmlns="http://www.w3.org/2000/svg">
<path d="M27.4936 14.615C28.6955 14.5796 29.7287 14.7685 30.648 15.3658C32.1896 16.3669 33.0732 17.7741 33.1373 19.6157C33.1896 21.1433 33.1373 22.6851 33.1373 24.2693C33.401 24.2693 33.6124 24.2977 33.8167 24.2977C35.5364 24.2977 37.2538 24.2977 38.9735 24.2977C40.059 24.2977 40.5649 24.8903 40.3749 25.9504C39.6932 29.7942 39.0044 33.0336 38.306 36.875C38.1374 37.7958 37.6528 38.1806 36.6979 38.1854C35.2585 38.1854 33.8214 38.1854 32.2917 38.1854V49.9906H29.8428V32.5448H10.6169V50.0001H8.07535V38.2326C7.79506 38.2208 7.58366 38.2019 7.36275 38.2019C6.13947 38.2019 4.9138 38.2019 3.68814 38.2019C2.72138 38.1877 2.26295 37.8147 2.0943 36.8797C1.44346 33.2909 0.804502 30.3302 0.160791 26.7579C0.11091 26.4887 0.0610279 26.2172 0.0253982 25.9457C-0.119496 24.8525 0.355567 24.2929 1.45059 24.2929C2.89241 24.2929 4.33422 24.2929 5.77604 24.2929H6.43638V23.6106C6.43638 21.2732 6.43638 20.0879 6.44826 17.7505C6.44826 16.7517 6.50051 16.0151 7.12285 15.1533C7.74518 14.2915 7.99459 13.9043 8.64305 12.9882C9.20125 12.202 10.0397 11.9942 10.7333 12.4688C11.4269 12.9434 11.4887 13.6847 10.9044 14.5087C9.5718 16.3976 9.19888 16.2772 9.19888 17.767C9.19888 19.0042 9.25588 24.2646 9.25588 24.2646H12.2583V22.7866C12.2583 21.8634 12.2583 20.9402 12.2583 20.0171C12.3058 17.0374 14.225 14.9361 17.2963 14.5867C14.807 12.2775 13.8474 9.48678 14.6027 6.20964C14.9364 4.76366 15.6701 3.43919 16.721 2.38579C17.7719 1.33238 19.0981 0.591984 20.55 0.248203C22.0018 -0.0955777 23.5215 -0.0290527 24.9373 0.440267C26.3532 0.909586 27.6088 1.76301 28.5625 2.90417C31.2038 6.0609 31.2988 11.1679 27.4936 14.615ZM37.4699 26.7555H2.94941C3.48149 29.6997 4.00406 32.5873 4.52663 35.4914H8.04922V31.6854C8.04922 30.6607 8.59317 30.1885 9.5813 30.1885H30.8024C31.6599 30.1885 32.3701 31.0337 32.3701 31.8412C32.3701 33.0548 32.3701 34.2637 32.3701 35.5292C33.477 35.5292 34.5411 35.5434 35.6029 35.5103C35.7288 35.5103 35.9188 35.2742 35.9545 35.1018C36.1231 34.3369 36.2514 33.5601 36.3915 32.788L37.4699 26.7555ZM14.921 24.0143H30.5292C30.5292 22.6355 30.5411 21.3015 30.5292 19.9675C30.5126 18.3525 29.4247 17.2735 27.8047 17.2712C24.408 17.2712 21.0105 17.2712 17.6123 17.2712C16.2037 17.2712 15.0612 18.1542 14.9495 19.5283C14.8308 21.0134 14.921 22.5009 14.921 24.0143ZM16.9852 8.16695C16.9685 8.88443 17.095 9.59808 17.3575 10.2666C17.6199 10.9352 18.0131 11.5454 18.5143 12.062C19.0155 12.5786 19.6147 12.9914 20.2773 13.2764C20.9399 13.5614 21.6528 13.713 22.3748 13.7225C25.3795 13.7438 27.8214 11.2953 27.838 8.23542C27.8546 5.1755 25.4152 2.67751 22.446 2.6657C19.4769 2.6539 17.0089 5.10467 16.9852 8.16695Z" fill="white"/>
</svg>
