<svg width="26" height="19" viewBox="0 0 26 19" fill="none" xmlns="http://www.w3.org/2000/svg">
<path opacity="0.7" d="M4.25 8.25C5.61719 8.25 6.75 7.15625 6.75 5.75C6.75 4.38281 5.61719 3.25 4.25 3.25C2.84375 3.25 1.75 4.38281 1.75 5.75C1.75 7.15625 2.84375 8.25 4.25 8.25ZM21.75 8.25C23.1172 8.25 24.25 7.15625 24.25 5.75C24.25 4.38281 23.1172 3.25 21.75 3.25C20.3438 3.25 19.25 4.38281 19.25 5.75C19.25 7.15625 20.3438 8.25 21.75 8.25ZM23 9.5H20.5C19.7969 9.5 19.1719 9.8125 18.7031 10.2422C20.3047 11.1016 21.3984 12.6641 21.6719 14.5H24.25C24.9141 14.5 25.5 13.9531 25.5 13.25V12C25.5 10.6328 24.3672 9.5 23 9.5ZM13 9.5C15.3828 9.5 17.375 7.54688 17.375 5.125C17.375 2.74219 15.3828 0.75 13 0.75C10.5781 0.75 8.625 2.74219 8.625 5.125C8.625 7.54688 10.5781 9.5 13 9.5ZM15.9688 10.75H15.6562C14.8359 11.1406 13.9375 11.375 13 11.375C12.0234 11.375 11.125 11.1406 10.3047 10.75H9.99219C7.49219 10.75 5.5 12.7812 5.5 15.2812V16.375C5.5 17.4297 6.32031 18.25 7.375 18.25H18.625C19.6406 18.25 20.5 17.4297 20.5 16.375V15.2812C20.5 12.7812 18.4688 10.75 15.9688 10.75ZM7.25781 10.2422C6.78906 9.8125 6.16406 9.5 5.5 9.5H3C1.59375 9.5 0.5 10.6328 0.5 12V13.25C0.5 13.9531 1.04688 14.5 1.75 14.5H4.28906C4.5625 12.6641 5.65625 11.1016 7.25781 10.2422Z" fill="white"/>
</svg>
