<svg width="18" height="20" viewBox="0 0 18 20" fill="none" xmlns="http://www.w3.org/2000/svg">
<path opacity="0.7" d="M9 10C11.7344 10 14 7.77344 14 5C14 2.26562 11.7344 0 9 0C6.22656 0 4 2.26562 4 5C4 7.77344 6.22656 10 9 10ZM12.4766 11.25H11.8125C10.9531 11.6797 10.0156 11.875 9 11.875C7.98438 11.875 7.00781 11.6797 6.14844 11.25H5.48438C2.59375 11.25 0.25 13.6328 0.25 16.5234V18.125C0.25 19.1797 1.07031 20 2.125 20H15.875C16.8906 20 17.75 19.1797 17.75 18.125V16.5234C17.75 13.6328 15.3672 11.25 12.4766 11.25Z" fill="white"/>
</svg>
