<svg width="76" height="76" viewBox="0 0 76 76" fill="none" xmlns="http://www.w3.org/2000/svg">
<path d="M38 -6.75C13.0391 -6.75 -7 13.4648 -7 38.25C-7 63.2109 13.0391 83.25 38 83.25C62.7852 83.25 83 63.2109 83 38.25C83 13.4648 62.7852 -6.75 38 -6.75ZM38 15.75C44.8555 15.75 50.6562 21.5508 50.6562 28.4062C50.6562 35.4375 44.8555 41.0625 38 41.0625C30.9688 41.0625 25.3438 35.4375 25.3438 28.4062C25.3438 21.5508 30.9688 15.75 38 15.75ZM38 72C28.6836 72 20.2461 68.3086 14.0938 62.1562C16.9062 54.7734 23.9375 49.5 32.375 49.5H43.625C51.8867 49.5 58.918 54.7734 61.7305 62.1562C55.5781 68.3086 47.1406 72 38 72Z" fill="#181924"/>
</svg>
