<svg id="Ebene_1" data-name="Ebene 1" xmlns="http://www.w3.org/2000/svg" viewBox="0 0 185.04 185.04"><defs><style>.cls-1{fill:#ffffff00;}.cls-2{fill:#1ed0fa;}.cls-3{fill:#fa1656;}.cls-4{fill:#fae917;}</style></defs><path class="cls-1" d="M867,447h185V632H867ZM988,580.87a3.88,3.88,0,0,0,0-.48q0-17.25,0-34.51c0-.17.09-.41-.28-.48a36.3,36.3,0,0,1-11.64,8.73c-.77.36-.78,1-.78,1.7q0,11.92,0,23.85c0,.42-.11.89.29,1.23-1.81,1.77-3.63,3.54-5.43,5.33-1.43,1.42-1.44,5.29.1,6.69,2.83,2.58,5.44,5.38,8.15,8.09a4.9,4.9,0,0,0,6.6.08c2.77-2.74,5.56-5.48,8.27-8.28a4.63,4.63,0,0,0,.08-6.55C991.73,584.36,989.81,582.66,988,580.87Zm-56,.1a45.16,45.16,0,0,0-5.25,5.19,4.9,4.9,0,0,0,.2,6.92c2.53,2.66,5.16,5.23,7.78,7.8a5,5,0,0,0,7.08,0c2.64-2.49,5.22-5.06,7.71-7.7a4.91,4.91,0,0,0-.07-7.33l-5.07-5.07c0-8.54,0-17.08,0-25.62,0-.76-.38-1-.94-1.3a34.54,34.54,0,0,1-8.16-5.56,43.61,43.61,0,0,1-3.28-3.26c0,.4-.08.54-.08.69Q932,563.38,932,581Zm34.18,26.49c.48-.36.27-.88.27-1.33q0-23.79,0-47.56c0-.41.16-.87-.13-1.16a53.84,53.84,0,0,1-12.56,0v.93q0,24,0,48c0,.35,0,.71.06,1.07-1.67,1.65-3.39,3.27-5,5a5.72,5.72,0,0,0-1.31,2.06c-.73,2.16,0,4.17,2,6,2.18,2.05,4.36,4.12,6.36,6.34,2.31,2.56,5.48,2.8,8,.36s5-4.91,7.42-7.4a5.38,5.38,0,0,0,.2-7.08C969.77,611,968,609.23,966.18,607.46ZM932.64,480.79H904.78c-1.59,0-1.59,0-1.59,1.57q0,40.32,0,80.65a10.55,10.55,0,0,0,.62,3.71,11.21,11.21,0,0,0,10.31,7.53c2.56.09,5.12,0,7.67,0,.34,0,.73.13,1.06-.23v-1.4q0-22.17,0-44.34c0-5-.27-10.09.72-15.08a33,33,0,0,1,3-8.86,34.69,34.69,0,0,1,4.83-7.39,41.71,41.71,0,0,1,8.06-7.3A38,38,0,0,1,951,484.57a28.11,28.11,0,0,1,6.67-.9c-.3,3.12-.59,6.08-.88,9A28.1,28.1,0,0,0,932,522.93c.86,12.51,10.79,25.12,27.38,25.87a26.57,26.57,0,0,0,18.25-6.2A27.89,27.89,0,0,0,988,523.92l9.25-1c0,.48-.09.79-.09,1.09q0,24.57,0,49.14c0,.92.34,1.16,1.2,1.14,2.44,0,4.87,0,7.31,0A11.3,11.3,0,0,0,1017,562.89q.13-49.5,0-99a11.52,11.52,0,0,0-1.79-6.13,11.32,11.32,0,0,0-10.2-5.48q-35.53-.07-71.07,0a1.83,1.83,0,0,0-1.34.22Zm-29.08-7.24c.31,0,.45.06.6.06,6.78,0,13.57,0,20.36,0,.85,0,1-.35,1-1.07,0-5.35,0-10.7,0-16.05v-3.94C924.64,452.68,905.35,471.18,903.56,473.55Z" transform="translate(-867 -447)"/><path class="cls-2" d="M932.64,480.79v-28.3a1.83,1.83,0,0,1,1.34-.22q35.53,0,71.07,0a11.32,11.32,0,0,1,10.2,5.48,11.52,11.52,0,0,1,1.79,6.13q0,49.5,0,99a11.3,11.3,0,0,1-11.35,11.37c-2.44,0-4.87,0-7.31,0-.86,0-1.2-.22-1.2-1.14q0-24.57,0-49.14c0-.3.05-.61.09-1.09l-9.25,1a27.89,27.89,0,0,1-10.36,18.68,26.57,26.57,0,0,1-18.25,6.2c-16.59-.75-26.52-13.36-27.38-25.87a28.1,28.1,0,0,1,24.8-30.23c.29-2.95.58-5.91.88-9a28.11,28.11,0,0,0-6.67.9,38,38,0,0,0-11.54,5.09,41.71,41.71,0,0,0-8.06,7.3,34.69,34.69,0,0,0-4.83,7.39,33,33,0,0,0-3,8.86c-1,5-.72,10-.72,15.08q0,22.17,0,44.34V574c-.33.36-.72.23-1.06.23-2.55,0-5.11.08-7.67,0a11.21,11.21,0,0,1-10.31-7.53,10.55,10.55,0,0,1-.62-3.71q0-40.34,0-80.65c0-1.57,0-1.57,1.59-1.57h27.86Zm73.6,35.43a45.14,45.14,0,0,0-13.2-28.3,45.67,45.67,0,0,0-28.52-13.57c-1.53,15.55-3,30.94-4.56,46.38Z" transform="translate(-867 -447)"/><path class="cls-2" d="M953.84,607.47c0-.36-.06-.72-.06-1.07q0-24,0-48v-.93a53.84,53.84,0,0,0,12.56,0c.29.29.13.75.13,1.16q0,23.77,0,47.56c0,.45.21,1-.27,1.33-.71-.69-1.43-1.37-2.13-2.07-2.54-2.56-5.52-2.5-8,.08A9.44,9.44,0,0,1,953.84,607.47Z" transform="translate(-867 -447)"/><path class="cls-3" d="M944.38,580.83l5.07,5.07a4.91,4.91,0,0,1,.07,7.33c-2.49,2.64-5.07,5.21-7.71,7.7a5,5,0,0,1-7.08,0c-2.62-2.57-5.25-5.14-7.78-7.8a4.9,4.9,0,0,1-.2-6.92A45.16,45.16,0,0,1,932,581a23.64,23.64,0,0,0,2.66-2.54,4.83,4.83,0,0,1,6.17-.71C942.23,578.53,943.15,579.85,944.38,580.83Z" transform="translate(-867 -447)"/><path class="cls-3" d="M953.84,607.47a9.44,9.44,0,0,0,2.18-2c2.51-2.58,5.49-2.64,8-.08.7.7,1.42,1.38,2.13,2.07,1.79,1.77,3.59,3.53,5.35,5.32a5.38,5.38,0,0,1-.2,7.08c-2.46,2.49-4.89,5-7.42,7.4s-5.72,2.2-8-.36c-2-2.22-4.18-4.29-6.36-6.34-2-1.88-2.73-3.89-2-6a5.72,5.72,0,0,1,1.31-2.06C950.45,610.74,952.17,609.12,953.84,607.47Z" transform="translate(-867 -447)"/><path class="cls-3" d="M988,580.87c1.82,1.79,3.74,3.49,5.42,5.4a4.63,4.63,0,0,1-.08,6.55c-2.71,2.8-5.5,5.54-8.27,8.28a4.9,4.9,0,0,1-6.6-.08c-2.71-2.71-5.32-5.51-8.15-8.09-1.54-1.4-1.53-5.27-.1-6.69,1.8-1.79,3.62-3.56,5.43-5.33a22.74,22.74,0,0,0,2.67-2.52,4.93,4.93,0,0,1,7,0A26.1,26.1,0,0,0,988,580.87Z" transform="translate(-867 -447)"/><path class="cls-2" d="M988,580.87a26.1,26.1,0,0,1-2.64-2.51,4.93,4.93,0,0,0-7,0,22.74,22.74,0,0,1-2.67,2.52c-.4-.34-.29-.81-.29-1.23q0-11.92,0-23.85c0-.69,0-1.34.78-1.7a36.3,36.3,0,0,0,11.64-8.73c.37.07.28.31.28.48q0,17.25,0,34.51A3.88,3.88,0,0,1,988,580.87Z" transform="translate(-867 -447)"/><path class="cls-2" d="M944.38,580.83c-1.23-1-2.15-2.3-3.55-3.11a4.83,4.83,0,0,0-6.17.71A23.64,23.64,0,0,1,932,581q0-17.6,0-35.19c0-.15,0-.29.08-.69a43.61,43.61,0,0,0,3.28,3.26,34.54,34.54,0,0,0,8.16,5.56c.56.28,1,.54.94,1.3C944.39,563.75,944.39,572.29,944.38,580.83Z" transform="translate(-867 -447)"/><path class="cls-3" d="M903.56,473.55c1.79-2.37,21.08-20.87,21.93-21v3.94c0,5.35,0,10.7,0,16.05,0,.72-.12,1.08-1,1.07-6.79,0-13.58,0-20.36,0C904,473.61,903.87,473.58,903.56,473.55Z" transform="translate(-867 -447)"/><path class="cls-4" d="M1006.24,516.22,960,520.73c1.52-15.44,3-30.83,4.56-46.38A45.67,45.67,0,0,1,993,487.92,45.14,45.14,0,0,1,1006.24,516.22Z" transform="translate(-867 -447)"/></svg>