<svg width="19" height="19" viewBox="0 0 19 19" fill="none" xmlns="http://www.w3.org/2000/svg">
<path opacity="0.7" d="M6.10938 5.15625C7.28125 3.98438 7.28125 2.0625 6.10938 0.890625C4.9375 -0.28125 3.01562 -0.28125 1.84375 0.890625C0.671875 2.0625 0.671875 3.98438 1.84375 5.15625C3.01562 6.32812 4.9375 6.32812 6.10938 5.15625ZM18.1094 12.8906C16.9375 11.7188 15.0156 11.7188 13.8438 12.8906C12.6719 14.0625 12.6719 15.9844 13.8438 17.1562C15.0156 18.3281 16.9375 18.3281 18.1094 17.1562C19.2812 15.9844 19.2812 14.0625 18.1094 12.8906ZM18.0156 2.0625L16.9375 0.984375C16.375 0.421875 15.3906 0.421875 14.8281 0.984375L1.9375 13.875C1.375 14.4375 1.375 15.4219 1.9375 15.9844L3.01562 17.0625C3.57812 17.625 4.5625 17.625 5.125 17.0625L18.0156 4.17188C18.5781 3.60938 18.5781 2.625 18.0156 2.0625Z" fill="white"/>
</svg>
