<svg width="22" height="19" viewBox="0 0 22 19" fill="none" xmlns="http://www.w3.org/2000/svg">
<path opacity="0.7" d="M2.0625 0.8125C0.902344 0.8125 0 1.75781 0 2.875C0 4.03516 0.902344 4.9375 2.0625 4.9375C3.17969 4.9375 4.125 4.03516 4.125 2.875C4.125 1.75781 3.17969 0.8125 2.0625 0.8125ZM2.0625 7.6875C0.902344 7.6875 0 8.63281 0 9.75C0 10.9102 0.902344 11.8125 2.0625 11.8125C3.17969 11.8125 4.125 10.9102 4.125 9.75C4.125 8.63281 3.17969 7.6875 2.0625 7.6875ZM2.0625 14.5625C0.902344 14.5625 0 15.5078 0 16.625C0 17.7852 0.902344 18.6875 2.0625 18.6875C3.17969 18.6875 4.125 17.7852 4.125 16.625C4.125 15.5078 3.17969 14.5625 2.0625 14.5625ZM21.3125 15.25H7.5625C7.17578 15.25 6.875 15.5938 6.875 15.9375V17.3125C6.875 17.6992 7.17578 18 7.5625 18H21.3125C21.6562 18 22 17.6992 22 17.3125V15.9375C22 15.5938 21.6562 15.25 21.3125 15.25ZM21.3125 1.5H7.5625C7.17578 1.5 6.875 1.84375 6.875 2.1875V3.5625C6.875 3.94922 7.17578 4.25 7.5625 4.25H21.3125C21.6562 4.25 22 3.94922 22 3.5625V2.1875C22 1.84375 21.6562 1.5 21.3125 1.5ZM21.3125 8.375H7.5625C7.17578 8.375 6.875 8.71875 6.875 9.0625V10.4375C6.875 10.8242 7.17578 11.125 7.5625 11.125H21.3125C21.6562 11.125 22 10.8242 22 10.4375V9.0625C22 8.71875 21.6562 8.375 21.3125 8.375Z" fill="white"/>
</svg>
