<?xml version="1.0" encoding="UTF-8"?> <svg xmlns="http://www.w3.org/2000/svg" id="Ebene_3" data-name="Ebene 3" viewBox="0 0 632 355"><defs><style>.cls-1{fill:#011144;}.cls-2{fill:#ff004d;}.cls-3{fill:#ffcd00;}</style></defs><path class="cls-1" d="M141.76,172.42q0,12.47,6.46,18.38T166,196.71q11.73,0,17.7-5.91t6-17.93V138.38H177.16v35.4a16.33,16.33,0,0,1-2.64,9.65q-2.64,3.73-8.55,3.73t-8.87-3.69q-2.88-3.67-2.87-10.78V138.38H141.76Zm88.45,22.79a19.45,19.45,0,0,0,7-4.5,21.33,21.33,0,0,0,4.73-7.42,27.71,27.71,0,0,0,1.73-10.15q0-10.19-5-16t-13.51-5.78a18.34,18.34,0,0,0-7.55,1.51,20.65,20.65,0,0,0-6,4l-1.27-4.83h-9.2v64.52h12v-22a14.66,14.66,0,0,0,3.86,1.5,18.67,18.67,0,0,0,4.69.59A23.92,23.92,0,0,0,230.21,195.21Zm-4.27-33.71a8.8,8.8,0,0,1,2.91,2.73,12.39,12.39,0,0,1,1.77,4.09,21.14,21.14,0,0,1,.59,5.19,20.14,20.14,0,0,1-1,6.64,12.21,12.21,0,0,1-2.55,4.41,9.65,9.65,0,0,1-3.55,2.46,10.57,10.57,0,0,1-4,.77,10.76,10.76,0,0,1-7-2.27V164.77a13.67,13.67,0,0,1,3.45-2.86,9.83,9.83,0,0,1,5.28-1.41A7.85,7.85,0,0,1,225.94,161.5Zm54.32-6.83a12.4,12.4,0,0,0-4.41-2.37,18.93,18.93,0,0,0-5.87-.91,21.59,21.59,0,0,0-8.55,1.6,16.84,16.84,0,0,0-6.28,4.55,20.53,20.53,0,0,0-3.92,7.14,30.16,30.16,0,0,0-1.36,9.37,28.25,28.25,0,0,0,1.5,9.56,20.94,20.94,0,0,0,4.14,7.1,18.06,18.06,0,0,0,6.19,4.46,18.93,18.93,0,0,0,7.64,1.54,16,16,0,0,0,8-1.73,14.28,14.28,0,0,0,4.68-4h.46l1.27,4.73h8.65v-65H280.26Zm0,28.39a9.22,9.22,0,0,1-3.05,3.32,8.42,8.42,0,0,1-4.95,1.41,9.81,9.81,0,0,1-4-.81,8.41,8.41,0,0,1-3.23-2.55,13.45,13.45,0,0,1-2.19-4.37,21.5,21.5,0,0,1-.82-6.28,19.37,19.37,0,0,1,.91-6.32,11.67,11.67,0,0,1,2.41-4.19,9.23,9.23,0,0,1,3.46-2.32,11.72,11.72,0,0,1,4.14-.73,9,9,0,0,1,4.19,1,9.83,9.83,0,0,1,3.09,2.46Zm28.12-18.93a32.37,32.37,0,0,1,6.14-2.63,19,19,0,0,1,5.42-.82,8.51,8.51,0,0,1,5.23,1.41A5.18,5.18,0,0,1,327,166.5v2.64h-5.46a38.22,38.22,0,0,0-8.15.82,20.83,20.83,0,0,0-6.59,2.55,12.7,12.7,0,0,0-4.42,4.41,12.38,12.38,0,0,0-1.59,6.42,14.51,14.51,0,0,0,.95,5.27,11.44,11.44,0,0,0,2.87,4.24,14.24,14.24,0,0,0,4.64,2.82,17.67,17.67,0,0,0,6.28,1,18.16,18.16,0,0,0,7.51-1.45,14.41,14.41,0,0,0,5.32-4h.37l1.09,4.46h9.37V167.5a19.53,19.53,0,0,0-1.23-7.32,12.53,12.53,0,0,0-3.55-5,14.73,14.73,0,0,0-5.55-2.87,26.51,26.51,0,0,0-7.14-.91,34.05,34.05,0,0,0-9.28,1.23,35.18,35.18,0,0,0-8.28,3.51Zm18.75,19.39a9.92,9.92,0,0,1-3.23,3.18,8.27,8.27,0,0,1-4.51,1.37,7.93,7.93,0,0,1-4.23-1.14q-1.86-1.14-1.86-4.23a5,5,0,0,1,2.18-4c1.46-1.12,4-1.74,7.73-1.87l3.92-.09Zm49.23-31.22H364.8V138.93h-12V152.3h-6.74V161h6.74v22.11q0,6.28,3.37,9.42t11.28,3.14A28.21,28.21,0,0,0,374,195a25.11,25.11,0,0,0,4.64-1.45l-1.82-8.47a11,11,0,0,1-3.09,1,20.12,20.12,0,0,1-3.73.36,5.84,5.84,0,0,1-3.78-1.14q-1.41-1.14-1.41-4.23V161h11.56Zm47.5,19.48q0-9.65-5.23-15t-14.06-5.37a22.84,22.84,0,0,0-8.92,1.69,20.15,20.15,0,0,0-6.87,4.68,20.8,20.8,0,0,0-4.42,7.24,27.3,27.3,0,0,0-1.54,9.42,24,24,0,0,0,1.91,10,19.47,19.47,0,0,0,5.14,6.91,21.07,21.07,0,0,0,7.55,4,31.46,31.46,0,0,0,9.24,1.32,39.94,39.94,0,0,0,8.83-.86,30.13,30.13,0,0,0,6.18-2l-2.18-8.46a34.27,34.27,0,0,1-5.05,1.73,25.69,25.69,0,0,1-6.42.72,16,16,0,0,1-9.37-2.54Q395,182.7,395,177.51v-.36h28.85Zm-28.58-2.73a11,11,0,0,1,2.83-6.64,8,8,0,0,1,6-2.46,7,7,0,0,1,3.37.73,6.58,6.58,0,0,1,2.27,1.95,8,8,0,0,1,1.32,2.87,13.47,13.47,0,0,1,.41,3.37ZM141.94,215.38v57.33h17.57A43.45,43.45,0,0,0,171.93,271a27.88,27.88,0,0,0,10.24-5.41,26.12,26.12,0,0,0,6.91-9.28,32.22,32.22,0,0,0,2.55-13.43,30.88,30.88,0,0,0-2.14-12,23,23,0,0,0-6.05-8.6,25.53,25.53,0,0,0-9.37-5.19A40.08,40.08,0,0,0,162,215.38ZM154.41,225h5.92q8.28,0,13.19,4.59t4.91,13.24a25.3,25.3,0,0,1-1.63,9.79,16.16,16.16,0,0,1-4.37,6.18,16,16,0,0,1-6.33,3.28,28.52,28.52,0,0,1-7.41,1h-4.28Zm84.9,23.75q0-9.65-5.23-15T220,228.39a22.87,22.87,0,0,0-8.92,1.69,20.15,20.15,0,0,0-6.87,4.68,20.63,20.63,0,0,0-4.41,7.24,27.29,27.29,0,0,0-1.55,9.42,24,24,0,0,0,1.91,10,19.49,19.49,0,0,0,5.15,6.91,21.07,21.07,0,0,0,7.55,4.05,31.44,31.44,0,0,0,9.23,1.32,39.94,39.94,0,0,0,8.83-.86,30.24,30.24,0,0,0,6.19-2.05L235,262.34a34.27,34.27,0,0,1-5,1.73,25.75,25.75,0,0,1-6.42.72,16,16,0,0,1-9.37-2.54q-3.65-2.55-3.64-7.74v-.36h28.84Zm-28.57-2.73a10.9,10.9,0,0,1,2.82-6.64,8,8,0,0,1,6-2.46,7,7,0,0,1,3.36.73,6.7,6.7,0,0,1,2.28,1.95,8.31,8.31,0,0,1,1.32,2.87,14,14,0,0,1,.41,3.37Zm65.16,14a12.24,12.24,0,0,1-3.69,3.19,10.86,10.86,0,0,1-5.6,1.36,6.7,6.7,0,0,1-4.77-1.73q-1.87-1.72-1.87-5.64V229.3h-12.1v28.94q0,7.65,4,11.56T263,273.71a20.16,20.16,0,0,0,9-1.95,17.52,17.52,0,0,0,3.09-1.91,27.38,27.38,0,0,0,2.32-2.05h.36l1.28,4.91h9V229.3H275.9Zm49-30.76H313.3V215.93h-12V229.3h-6.73V238h6.73v22.11q0,6.28,3.37,9.42c2.24,2.1,6,3.14,11.28,3.14a28.36,28.36,0,0,0,6.56-.73,25.37,25.37,0,0,0,4.64-1.45l-1.82-8.47a10.94,10.94,0,0,1-3.1,1,20,20,0,0,1-3.73.36,5.81,5.81,0,0,1-3.77-1.14c-.95-.76-1.41-2.17-1.41-4.23V238h11.55Zm37.58,1.92a33,33,0,0,0-14-2.83q-8,0-12.47,3.74A13.14,13.14,0,0,0,334,249.78q2.55,3,8,4.82l2.82.82a26.3,26.3,0,0,1,6.19,2.32,3.33,3.33,0,0,1,1.64,3,3.46,3.46,0,0,1-1.69,3c-1.12.76-2.89,1.13-5.32,1.13a20.63,20.63,0,0,1-5.92-.86,32,32,0,0,1-5.55-2.23l-2.73,8.92a32.91,32.91,0,0,0,14.84,3.09q8.46,0,13.42-3.82a12.32,12.32,0,0,0,5-10.28,11.21,11.21,0,0,0-2.91-8,18.68,18.68,0,0,0-8.56-4.73l-2.73-.82a19.23,19.23,0,0,1-5.68-2.37,3.38,3.38,0,0,1-1.41-2.82,3.09,3.09,0,0,1,1.59-2.73,8.43,8.43,0,0,1,4.5-1,24.15,24.15,0,0,1,10.38,2.55Zm28.94,32.85a11.17,11.17,0,0,1-4.09-2.37,11.91,11.91,0,0,1-3-4.32,16.9,16.9,0,0,1-1.14-6.6q0-6.65,3.51-10.1a12.46,12.46,0,0,1,9.14-3.46,15.51,15.51,0,0,1,4.51.68,20.76,20.76,0,0,1,4.14,1.78l2.54-8.37a22.23,22.23,0,0,0-6.59-2.37,35.33,35.33,0,0,0-6-.55,27.06,27.06,0,0,0-9.56,1.64,21.42,21.42,0,0,0-7.46,4.64,21.2,21.2,0,0,0-4.82,7.19,26.36,26.36,0,0,0,.09,19,20.29,20.29,0,0,0,5,7.05,20.62,20.62,0,0,0,7.41,4.33,28.37,28.37,0,0,0,9.19,1.45,29.56,29.56,0,0,0,7.56-.91,23.61,23.61,0,0,0,5.27-1.91l-2.27-8.37a29.61,29.61,0,0,1-3.69,1.5,15.52,15.52,0,0,1-5.14.77A15.29,15.29,0,0,1,391.37,264.07Zm36.13-22.21a16.19,16.19,0,0,1,4.5-3.05,11.85,11.85,0,0,1,4.87-1.13,6.92,6.92,0,0,1,5.28,1.91c1.21,1.27,1.82,3.4,1.82,6.37v26.75h12.1V243.87a20.41,20.41,0,0,0-.91-6.24,13,13,0,0,0-2.77-4.91,12.56,12.56,0,0,0-4.73-3.19,18.1,18.1,0,0,0-6.69-1.14,19.82,19.82,0,0,0-7.42,1.37,24,24,0,0,0-6.05,3.46V207.74H415.4v65h12.1Zm52,30.85v-65H467.54v65Zm16.2-31.58a32.1,32.1,0,0,1,6.14-2.63,18.91,18.91,0,0,1,5.41-.82,8.55,8.55,0,0,1,5.24,1.41,5.18,5.18,0,0,1,1.86,4.41v2.64h-5.46a38.06,38.06,0,0,0-8.14.82,21,21,0,0,0-6.6,2.55,12.75,12.75,0,0,0-4.41,4.41,12.28,12.28,0,0,0-1.6,6.42,14.3,14.3,0,0,0,1,5.27,11.41,11.41,0,0,0,2.86,4.24,14.4,14.4,0,0,0,4.65,2.82,17.63,17.63,0,0,0,6.28,1,18.08,18.08,0,0,0,7.5-1.45,14.45,14.45,0,0,0,5.33-4H516l1.09,4.46h9.37V244.5a19.54,19.54,0,0,0-1.22-7.32,12.63,12.63,0,0,0-3.55-5,14.8,14.8,0,0,0-5.55-2.87,26.64,26.64,0,0,0-7.15-.91,34.11,34.11,0,0,0-9.28,1.23,35.54,35.54,0,0,0-8.28,3.51Zm18.74,19.39a9.83,9.83,0,0,1-3.23,3.18,8.24,8.24,0,0,1-4.5,1.37,7.93,7.93,0,0,1-4.23-1.14q-1.87-1.14-1.87-4.23a5,5,0,0,1,2.18-4q2.19-1.68,7.74-1.87l3.91-.09Zm34.49-17.93a16.72,16.72,0,0,1,4.69-3.59,10.94,10.94,0,0,1,5-1.32,5.94,5.94,0,0,1,4.82,1.95A8.07,8.07,0,0,1,565,245v27.75h12.1v-29q0-7.45-3.82-11.37t-11-3.92a18.55,18.55,0,0,0-8,1.69,22.23,22.23,0,0,0-6.6,4.78l-1.46-5.56h-9.46v43.41h12.1Zm67.25-10.92a12.4,12.4,0,0,0-4.41-2.37,18.93,18.93,0,0,0-5.87-.91,21.67,21.67,0,0,0-8.56,1.6,16.92,16.92,0,0,0-6.28,4.55,20.51,20.51,0,0,0-3.91,7.14,30.16,30.16,0,0,0-1.36,9.37,28.25,28.25,0,0,0,1.5,9.56,20.94,20.94,0,0,0,4.14,7.1,18.06,18.06,0,0,0,6.19,4.46,18.9,18.9,0,0,0,7.64,1.54,16,16,0,0,0,8-1.73,14.33,14.33,0,0,0,4.69-4h.45l1.28,4.73h8.64v-65h-12.1Zm0,28.39a9.22,9.22,0,0,1-3,3.32,8.45,8.45,0,0,1-5,1.41,9.88,9.88,0,0,1-4-.81,8.48,8.48,0,0,1-3.23-2.55,13.24,13.24,0,0,1-2.18-4.37,21.17,21.17,0,0,1-.82-6.28,19.1,19.1,0,0,1,.91-6.32,11.67,11.67,0,0,1,2.41-4.19,9.07,9.07,0,0,1,3.46-2.32,11.64,11.64,0,0,1,4.14-.73,9,9,0,0,1,4.19,1,9.83,9.83,0,0,1,3.09,2.46Z"></path><path class="cls-1" d="M200.48,45.79,160.27,5.59a10,10,0,1,0-14.14,14.14l17.42,17.42a19.9,19.9,0,0,1,0,28l-17.4,17.4a10,10,0,0,0,14.14,14.15l40.21-40.21a7.59,7.59,0,0,0,0-10.73Z"></path><path class="cls-2" d="M76.8,80.34a17,17,0,0,1,15.75,18.1L91,121.66a8.78,8.78,0,0,0,8.66,9.42h.12a8.83,8.83,0,0,0,8.76-8.17l3.65-51a6.65,6.65,0,0,0-1.6-4.81,6.58,6.58,0,0,0-4.54-2.26L55,61.15a7.94,7.94,0,0,0-5.24,1.49,8.65,8.65,0,0,0,4,16Z"></path><path class="cls-2" d="M30.57,153.11a17,17,0,0,1,22.78,7.7l8.42,17a7.59,7.59,0,1,0,13.6-6.73L55.2,130.32a5.65,5.65,0,0,0-6-3.08,6.2,6.2,0,0,0-1.67.56L6.85,147.93a7.59,7.59,0,1,0,6.73,13.6Z"></path><path class="cls-2" d="M48.5,223.4l15.78,9.73a6.81,6.81,0,0,0,2.78,1,6.38,6.38,0,0,0,6.78-8.38,6.69,6.69,0,0,0-2.9-3.52L37.26,201.49a4.72,4.72,0,0,0-2.45-.69,4.65,4.65,0,0,0-4,2.23L9.93,236.91a6.38,6.38,0,0,0,9.14,8.53,6.64,6.64,0,0,0,1.83-2l9.71-15.77A13,13,0,0,1,48.5,223.4Z"></path><path class="cls-3" d="M60.55,285.11a12,12,0,0,1,13.58-10.18l15.34,2.2a6.3,6.3,0,0,0,.75.05,5.17,5.17,0,0,0,3.7-8.78,5.44,5.44,0,0,0-3.17-1.54L57.17,262a3.49,3.49,0,0,0-2,.27,4,4,0,0,0-2.3,3.16L48.12,299a5.17,5.17,0,0,0,4.38,5.85,4.71,4.71,0,0,0,.74.06,5.19,5.19,0,0,0,5.11-4.44Z"></path><path class="cls-3" d="M100,321.72a11,11,0,0,1,7.52-13.63l11.63-3.35a4.23,4.23,0,0,0,2.24-1.5,3.92,3.92,0,0,0,.61-3.45,4,4,0,0,0-3.8-2.87,3.75,3.75,0,0,0-1.1.16L89.79,305a2.77,2.77,0,0,0-1.88,3.41L95.8,335.7a4,4,0,0,0,3.81,2.86,3.75,3.75,0,0,0,1.1-.16A3.93,3.93,0,0,0,103.3,336a4.16,4.16,0,0,0,.07-2.7Z"></path><path class="cls-3" d="M147.72,326.66a10,10,0,0,0-2.6,13.91l5.12,7.45a2.76,2.76,0,0,1-.71,3.84,2.8,2.8,0,0,1-2.41.35,3,3,0,0,1-1.5-1.17l-12.8-18.64a1.8,1.8,0,0,1,.46-2.49L152,317a2.76,2.76,0,0,1,4.27,2.77,2.68,2.68,0,0,1-1.15,1.77Z"></path></svg> 