<svg width="132" height="30" viewBox="0 0 132 30" fill="none" xmlns="http://www.w3.org/2000/svg"><path fill-rule="evenodd" clip-rule="evenodd" d="M7.156 9.424 9.953.365h3.676l2.774 9.059L19.537.365h3.812l-5.503 15.751H15.23l-3.45-10.95-3.429 10.95H5.735L.232.366h3.812l3.112 9.058zM25.501 16.116h3.173V.366H25.5v15.75zM32.867.365h3.49v6.468L42.26.365h4.317L40.36 7.328c.537.752 1.528 2.152 2.974 4.203 1.447 2.05 2.528 3.579 3.244 4.585h-4.071l-4.585-6.219-1.566 1.758v4.461h-3.489V.366zM48.73 16.116h3.173V.366h-3.172v15.75zM70.429 6.202l-4.327 8.607h-2.13l-4.304-8.607v9.914h-3.571V.366h4.83l4.122 8.652L69.192.365H74v15.751H70.43V6.202zM88.37.365v3.133h-7.81v3.244h7.025V9.74h-7.024v3.268h8.057v3.11H77.06V.364h11.31zM101.537 11.79c.891-.811 1.337-1.99 1.337-3.538 0-1.547-.446-2.738-1.337-3.572-.891-.834-2.257-1.25-4.1-1.25h-2.022v9.577h2.3c1.658 0 2.931-.406 3.822-1.217m2.661-9.363c1.548 1.374 2.323 3.287 2.323 5.735 0 2.448-.756 4.386-2.266 5.813-1.51 1.428-3.814 2.141-6.912 2.141H91.79V.366h5.739c2.896 0 5.119.686 6.669 2.06M108.674 16.116h3.173V.366h-3.173v15.75zM123.361 5.052l-1.97 4.575h3.916l-1.946-4.575zm4.718 11.064-1.454-3.402h-6.552l-1.454 3.402h-3.713l6.755-15.75h3.376l6.753 15.75h-3.711zM10.705 26.14c0-1.687-.923-2.53-2.77-2.53H6.747v5.048h1.32c.852 0 1.505-.213 1.958-.638.454-.424.68-1.051.68-1.88m.181-2.714c.678.643 1.017 1.537 1.017 2.682s-.329 2.051-.986 2.718c-.659.668-1.666 1.001-3.022 1.001H5.558v-7.365h2.417c1.262 0 2.232.321 2.911.964M22.204 22.462v1.17H18.34v1.948h3.471v1.107h-3.47v1.97h3.989v1.17h-5.213v-7.365h5.088zM30.453 28.085c.343.39.807.584 1.394.584.586 0 1.05-.194 1.393-.584.343-.39.514-.918.514-1.586v-4.037h1.265v4.09c0 1.05-.296 1.858-.89 2.425-.592.567-1.353.85-2.282.85-.93 0-1.69-.283-2.284-.85-.593-.567-.89-1.375-.89-2.425v-4.09h1.266v4.037c0 .668.171 1.196.514 1.586M43.406 23.6v6.227h-1.135V23.6h-2.039v-1.138h5.213V23.6h-2.039zM53.357 23.57c-.33 0-.602.072-.814.214-.212.143-.318.358-.318.646 0 .288.106.508.318.661.212.153.663.318 1.354.494.69.176 1.21.424 1.56.742.351.32.526.788.526 1.41 0 .62-.221 1.123-.665 1.51-.443.386-1.024.58-1.744.58-1.054 0-1.988-.383-2.803-1.15l.712-.905c.681.624 1.388.936 2.12.936.366 0 .657-.083.872-.25a.794.794 0 0 0 .323-.66c0-.275-.101-.489-.304-.641-.202-.153-.551-.292-1.045-.418a8.932 8.932 0 0 1-1.127-.346 2.496 2.496 0 0 1-.684-.412c-.399-.319-.598-.807-.598-1.465 0-.657.226-1.164.68-1.52.452-.356 1.012-.534 1.68-.534.431 0 .858.074 1.282.224.424.149.79.359 1.098.63l-.606.905c-.2-.19-.47-.346-.81-.467a2.972 2.972 0 0 0-1.007-.184M64.879 28.657c.399 0 .742-.07 1.03-.208.287-.14.588-.362.902-.667l.746.794c-.727.834-1.607 1.251-2.644 1.251-1.036 0-1.896-.346-2.579-1.038-.683-.691-1.025-1.566-1.025-2.624 0-1.059.348-1.94 1.044-2.645.697-.706 1.576-1.058 2.639-1.058 1.062 0 1.95.407 2.662 1.22l-.735.835c-.327-.326-.636-.553-.927-.681a2.513 2.513 0 0 0-1.025-.194c-.693 0-1.275.233-1.746.696-.47.465-.706 1.059-.706 1.78 0 .724.234 1.327.702 1.812.467.485 1.02.727 1.662.727M72.867 29.827v-7.365h1.055v3.192h3.103v-3.192h1.055v7.365h-1.055v-3.013h-3.103v3.013h-1.055zM85.559 29.827v-7.365h1.132v6.185h3.06v1.18H85.56zM99.907 27.003l-1.261-3.034-1.26 3.034h2.52zm-2.999 1.149-.694 1.675h-1.251l3.057-7.365h1.251l3.057 7.365h-1.25l-.695-1.675h-3.475zM112.72 22.462h1.167v7.365h-1.266l-3.914-5.374v5.374h-1.166v-7.365h1.166l4.013 5.5v-5.5zM125.378 26.14c0-1.687-.922-2.53-2.77-2.53h-1.188v5.048h1.32c.853 0 1.506-.213 1.959-.638.454-.424.679-1.051.679-1.88m.183-2.714c.677.643 1.017 1.537 1.017 2.682s-.33 2.051-.988 2.718c-.658.668-1.665 1.001-3.02 1.001h-2.338v-7.365h2.417c1.262 0 2.233.321 2.912.964" fill="#252525"/></svg>