<svg xmlns="http://www.w3.org/2000/svg" viewBox="0 0 1037.42 1037.39"><defs><style>.cls-1{fill:none;}</style></defs><g id="Ebene_2" data-name="Ebene 2"><g id="Ebene_1-2" data-name="Ebene 1"><path d="M1037.17,1029.63V744.38a7.49,7.49,0,0,0-7.5-7.5h-35a7.5,7.5,0,0,0-7.5,7.5V987.13H744.67a7.5,7.5,0,0,0-7.5,7.5v35a7.5,7.5,0,0,0,7.5,7.5h285A7.5,7.5,0,0,0,1037.17,1029.63Z"/><path d="M1029.8,0H744.55a7.5,7.5,0,0,0-7.5,7.5v35a7.5,7.5,0,0,0,7.5,7.5H987.3V292.5a7.5,7.5,0,0,0,7.5,7.5h35a7.5,7.5,0,0,0,7.5-7.5V7.5A7.5,7.5,0,0,0,1029.8,0Z"/><rect class="cls-1" x="0.42" width="1037" height="1037"/><path d="M.13,1029.89V744.64a7.5,7.5,0,0,1,7.5-7.5h35a7.5,7.5,0,0,1,7.5,7.5V987.39h242.5a7.5,7.5,0,0,1,7.5,7.5v35a7.5,7.5,0,0,1-7.5,7.5H7.63A7.5,7.5,0,0,1,.13,1029.89Z"/><path d="M7.5.26H292.75a7.5,7.5,0,0,1,7.5,7.5v35a7.5,7.5,0,0,1-7.5,7.5H50v242.5a7.5,7.5,0,0,1-7.5,7.5H7.5a7.5,7.5,0,0,1-7.5-7.5V7.76A7.5,7.5,0,0,1,7.5.26Z"/></g></g></svg>