<svg xmlns="http://www.w3.org/2000/svg" viewBox="0 0 448 376">
    <defs>
        <style>
            .cls-1{fill:#fff;}
        </style>
    </defs>

<g id="Ebene_2" data-name="Ebene 2">
    <g id="Ebene_1-2" data-name="Ebene 1">
        <path class="cls-1" d="M436,56H12A12,12,0,0,1,0,44V12A12,12,0,0,1,12,0H436a12,12,0,0,1,12,12V44A12,12,0,0,1,436,56Zm0,160H12A12,12,0,0,1,0,204V172a12,12,0,0,1,12-12H436a12,12,0,0,1,12,12v32A12,12,0,0,1,436,216Zm0,160H12A12,12,0,0,1,0,364V332a12,12,0,0,1,12-12H436a12,12,0,0,1,12,12v32A12,12,0,0,1,436,376Z"/>
    </g>
</g>
</svg>