<svg xmlns="http://www.w3.org/2000/svg" viewBox="0 0 496 496"><defs><style>.cls-1{fill:#fff;}</style></defs><g id="Ebene_2" data-name="Ebene 2"><g id="Ebene_1-2" data-name="Ebene 1"><path class="cls-1" d="M248,32c118.62,0,216,96.07,216,216,0,119.29-96.61,216-216,216S32,367.44,32,248C32,128.8,128.6,32,248,32m0-32C111,0,0,111.08,0,248S111,496,248,496,496,385,496,248,385,0,248,0ZM212,344h12V224H212a12,12,0,0,1-12-12v-8a12,12,0,0,1,12-12h48a12,12,0,0,1,12,12V344h12a12,12,0,0,1,12,12v8a12,12,0,0,1-12,12H212a12,12,0,0,1-12-12v-8A12,12,0,0,1,212,344Zm36-240a32,32,0,1,0,32,32A32,32,0,0,0,248,104Z"/></g></g></svg>